<svg width="100" height="100" viewBox="0 0 100 100" fill="none" xmlns="http://www.w3.org/2000/svg">
<circle cx="50" cy="50" r="50" fill="url(#paint0_linear_187_62)"/>
<path d="M52.6719 73.9375C48.7344 73.9375 45.2031 73.3125 42.0781 72.0625C38.9531 70.7812 36.2969 69.0156 34.1094 66.7656C31.9531 64.5156 30.2969 61.9062 29.1406 58.9375C27.9844 55.9375 27.4062 52.75 27.4062 49.375V47.5C27.4062 43.6562 27.9531 40.1406 29.0469 36.9531C30.1406 33.7656 31.7031 31 33.7344 28.6562C35.7969 26.3125 38.2969 24.5156 41.2344 23.2656C44.1719 21.9844 47.4844 21.3438 51.1719 21.3438C54.7656 21.3438 57.9531 21.9375 60.7344 23.125C63.5156 24.3125 65.8438 26 67.7188 28.1875C69.625 30.375 71.0625 33 72.0312 36.0625C73 39.0938 73.4844 42.4688 73.4844 46.1875V51.8125H33.1719V42.8125H60.2188V41.7812C60.2188 39.9062 59.875 38.2344 59.1875 36.7656C58.5312 35.2656 57.5312 34.0781 56.1875 33.2031C54.8438 32.3281 53.125 31.8906 51.0312 31.8906C49.25 31.8906 47.7188 32.2812 46.4375 33.0625C45.1562 33.8438 44.1094 34.9375 43.2969 36.3438C42.5156 37.75 41.9219 39.4062 41.5156 41.3125C41.1406 43.1875 40.9531 45.25 40.9531 47.5V49.375C40.9531 51.4062 41.2344 53.2812 41.7969 55C42.3906 56.7188 43.2188 58.2031 44.2812 59.4531C45.375 60.7031 46.6875 61.6719 48.2188 62.3594C49.7812 63.0469 51.5469 63.3906 53.5156 63.3906C55.9531 63.3906 58.2188 62.9219 60.3125 61.9844C62.4375 61.0156 64.2656 59.5625 65.7969 57.625L72.3594 64.75C71.2969 66.2812 69.8438 67.75 68 69.1562C66.1875 70.5625 64 71.7188 61.4375 72.625C58.875 73.5 55.9531 73.9375 52.6719 73.9375Z" fill="url(#paint1_linear_187_62)"/>
<defs>
<linearGradient id="paint0_linear_187_62" x1="-12" y1="-21.5" x2="79" y2="69.5" gradientUnits="userSpaceOnUse">
<stop stop-color="#434343"/>
<stop offset="1"/>
</linearGradient>
<linearGradient id="paint1_linear_187_62" x1="77.1667" y1="58.4772" x2="30.6706" y2="13.8063" gradientUnits="userSpaceOnUse">
<stop stop-color="#4481EB"/>
<stop offset="1" stop-color="#04BEFE"/>
</linearGradient>
</defs>
</svg>
