<svg width="94" height="132" viewBox="0 0 94 132" fill="none" xmlns="http://www.w3.org/2000/svg">
<path d="M23.3275 103.125H69.89V112.5H23.3275V103.125ZM32.64 121.875H60.5775V131.25H32.64V121.875ZM46.6088 0C34.2596 0 22.4163 4.9386 13.6841 13.7294C4.95193 22.5201 0.0462544 34.443 0.0462544 46.875C-0.268628 53.6875 1.02767 60.4779 3.82851 66.6877C6.62934 72.8974 10.8547 78.3489 16.1569 82.5938C20.8131 86.9531 23.3275 89.4375 23.3275 93.75H32.64C32.64 85.125 27.4716 80.2969 22.4428 75.6562C18.0909 72.3012 14.6225 67.9232 12.3415 62.9055C10.0604 57.8878 9.03627 52.3836 9.35876 46.875C9.35876 36.9294 13.2833 27.3911 20.269 20.3585C27.2548 13.3259 36.7294 9.375 46.6088 9.375C56.4881 9.375 65.9628 13.3259 72.9485 20.3585C79.9342 27.3911 83.8587 36.9294 83.8587 46.875C84.1759 52.3877 83.1446 57.8945 80.8553 62.9125C78.5659 67.9305 75.0886 72.3063 70.7281 75.6562C65.7459 80.3438 60.5775 85.0312 60.5775 93.75H69.89C69.89 89.4375 72.3578 86.9531 77.0606 82.5469C82.3592 78.3093 86.5826 72.8658 89.3834 66.6642C92.1842 60.4627 93.4825 53.6803 93.1712 46.875C93.1712 40.7193 91.9669 34.6238 89.6269 28.9367C87.2869 23.2496 83.8571 18.0821 79.5334 13.7294C75.2097 9.37662 70.0767 5.92384 64.4274 3.56815C58.7782 1.21246 52.7234 0 46.6088 0Z" fill="url(#paint0_linear_38_444)"/>
<defs>
<linearGradient id="paint0_linear_38_444" x1="0" y1="65.625" x2="93.2165" y2="65.625" gradientUnits="userSpaceOnUse">
<stop stop-color="#E0C3FC"/>
<stop offset="1" stop-color="#8EC5FC"/>
</linearGradient>
</defs>
</svg>
