<svg width="254" height="103" viewBox="0 0 254 103" fill="none" xmlns="http://www.w3.org/2000/svg">
<path d="M48.6866 48.625C46.0616 48.625 43.7075 48.2083 41.6241 47.375C39.5408 46.5208 37.77 45.3438 36.3116 43.8438C34.8741 42.3438 33.77 40.6042 32.9991 38.625C32.2283 36.625 31.8429 34.5 31.8429 32.25V31C31.8429 28.4375 32.2075 26.0938 32.9366 23.9688C33.6658 21.8438 34.7075 20 36.0616 18.4375C37.4366 16.875 39.1033 15.6771 41.0616 14.8438C43.02 13.9896 45.2283 13.5625 47.6866 13.5625C50.0825 13.5625 52.2075 13.9583 54.0616 14.75C55.9158 15.5417 57.4679 16.6667 58.7179 18.125C59.9887 19.5833 60.947 21.3333 61.5929 23.375C62.2387 25.3958 62.5616 27.6458 62.5616 30.125V33.875H35.6866V27.875H53.7179V27.1875C53.7179 25.9375 53.4887 24.8229 53.0304 23.8438C52.5929 22.8438 51.9262 22.0521 51.0304 21.4688C50.1345 20.8854 48.9887 20.5938 47.5929 20.5938C46.4054 20.5938 45.3845 20.8542 44.5304 21.375C43.6762 21.8958 42.9783 22.625 42.4366 23.5625C41.9158 24.5 41.52 25.6042 41.2491 26.875C40.9991 28.125 40.8741 29.5 40.8741 31V32.25C40.8741 33.6042 41.0616 34.8542 41.4366 36C41.8325 37.1458 42.3845 38.1354 43.0929 38.9688C43.822 39.8021 44.697 40.4479 45.7179 40.9062C46.7595 41.3646 47.9366 41.5938 49.2491 41.5938C50.8741 41.5938 52.3845 41.2812 53.7804 40.6562C55.197 40.0104 56.4158 39.0417 57.4366 37.75L61.8116 42.5C61.1033 43.5208 60.1345 44.5 58.9054 45.4375C57.697 46.375 56.2387 47.1458 54.5304 47.75C52.822 48.3333 50.8741 48.625 48.6866 48.625ZM85.4366 24.9375V32H67.7804V24.9375H85.4366ZM111.218 31.7812H99.6241V24.4688H111.218C113.01 24.4688 114.468 24.1771 115.593 23.5938C116.718 22.9896 117.541 22.1562 118.062 21.0938C118.582 20.0312 118.843 18.8333 118.843 17.5C118.843 16.1458 118.582 14.8854 118.062 13.7188C117.541 12.5521 116.718 11.6146 115.593 10.9062C114.468 10.1979 113.01 9.84375 111.218 9.84375H102.874V48H93.4991V2.5H111.218C114.78 2.5 117.832 3.14583 120.374 4.4375C122.937 5.70833 124.895 7.46875 126.249 9.71875C127.603 11.9688 128.28 14.5417 128.28 17.4375C128.28 20.375 127.603 22.9167 126.249 25.0625C124.895 27.2083 122.937 28.8646 120.374 30.0312C117.832 31.1979 114.78 31.7812 111.218 31.7812ZM185.343 31.2812C185.26 33.4062 184.947 35.5 184.405 37.5625C183.864 39.625 183.041 41.4896 181.937 43.1562C180.853 44.8229 179.468 46.1562 177.78 47.1562C176.093 48.1562 174.051 48.6562 171.655 48.6562C170.301 48.6562 169.082 48.4167 167.999 47.9375C166.916 47.4583 165.999 46.7812 165.249 45.9062C164.499 45.0104 163.947 43.9375 163.593 42.6875C163.239 41.4375 163.114 40.0312 163.218 38.4688L164.812 20.4688H171.062L169.499 38.4688C169.374 39.5521 169.385 40.4375 169.53 41.125C169.697 41.8125 169.947 42.3438 170.28 42.7188C170.635 43.0938 171.03 43.3646 171.468 43.5312C171.926 43.6771 172.374 43.75 172.812 43.75C173.812 43.75 174.728 43.4375 175.562 42.8125C176.395 42.1875 177.114 41.3229 177.718 40.2188C178.322 39.1146 178.801 37.8229 179.155 36.3438C179.51 34.8438 179.707 33.2292 179.749 31.5C179.895 28.7292 179.76 26.1667 179.343 23.8125C178.947 21.4583 178.26 19.3542 177.28 17.5C176.322 15.625 175.072 14.0417 173.53 12.75C171.989 11.4375 170.155 10.4375 168.03 9.75C165.905 9.04167 163.478 8.6875 160.749 8.6875C158.187 8.6875 155.822 9.08333 153.655 9.875C151.51 10.6667 149.582 11.8021 147.874 13.2812C146.187 14.7604 144.728 16.5312 143.499 18.5938C142.291 20.6354 141.332 22.9167 140.624 25.4375C139.937 27.9375 139.53 30.625 139.405 33.5C139.26 36.5208 139.416 39.2708 139.874 41.75C140.353 44.2292 141.114 46.4062 142.155 48.2812C143.218 50.1771 144.541 51.7604 146.124 53.0312C147.707 54.3021 149.551 55.2604 151.655 55.9062C153.76 56.5521 156.103 56.875 158.687 56.875C160.499 56.875 162.343 56.6667 164.218 56.25C166.114 55.8542 167.707 55.3438 168.999 54.7188L170.187 59.375C168.728 60.3125 166.905 61.0104 164.718 61.4688C162.551 61.9271 160.499 62.1562 158.562 62.1562C155.249 62.1562 152.228 61.75 149.499 60.9375C146.791 60.1458 144.395 58.9583 142.312 57.375C140.228 55.8125 138.489 53.875 137.093 51.5625C135.718 49.25 134.697 46.5833 134.03 43.5625C133.385 40.5417 133.135 37.1875 133.28 33.5C133.426 30.0833 133.957 26.8646 134.874 23.8438C135.791 20.8229 137.041 18.0833 138.624 15.625C140.207 13.1667 142.103 11.0521 144.312 9.28125C146.541 7.48958 149.041 6.11458 151.812 5.15625C154.582 4.19792 157.603 3.71875 160.874 3.71875C164.124 3.71875 167.072 4.14583 169.718 5C172.385 5.85417 174.718 7.08333 176.718 8.6875C178.718 10.2708 180.385 12.1979 181.718 14.4688C183.051 16.7188 184.02 19.2604 184.624 22.0938C185.228 24.9271 185.468 27.9896 185.343 31.2812ZM153.78 34.5625C153.676 35.9375 153.687 37.1562 153.812 38.2188C153.937 39.2812 154.176 40.1771 154.53 40.9062C154.885 41.6354 155.343 42.1875 155.905 42.5625C156.489 42.9167 157.176 43.0938 157.968 43.0938C158.405 43.0938 158.885 42.9896 159.405 42.7812C159.926 42.5521 160.457 42.1771 160.999 41.6562C161.541 41.1354 162.051 40.4167 162.53 39.5C163.03 38.5625 163.447 37.3854 163.78 35.9688L166.437 39.125C165.957 40.6875 165.364 42.0625 164.655 43.25C163.947 44.4167 163.135 45.3958 162.218 46.1875C161.322 46.9792 160.343 47.5729 159.28 47.9688C158.218 48.3646 157.072 48.5625 155.843 48.5625C154.322 48.5625 152.968 48.2396 151.78 47.5938C150.593 46.9271 149.603 45.9792 148.812 44.75C148.02 43.5208 147.447 42.0521 147.093 40.3438C146.76 38.6146 146.697 36.6875 146.905 34.5625C147.135 32.4375 147.551 30.4688 148.155 28.6562C148.76 26.8438 149.51 25.2292 150.405 23.8125C151.301 22.375 152.322 21.1562 153.468 20.1562C154.635 19.1354 155.895 18.3646 157.249 17.8438C158.603 17.3229 160.02 17.0625 161.499 17.0625C163.895 17.0625 165.78 17.4062 167.155 18.0938C168.53 18.7812 169.832 19.5729 171.062 20.4688L167.874 24.75C167.27 24.2083 166.478 23.6875 165.499 23.1875C164.541 22.6667 163.395 22.4062 162.062 22.4062C160.832 22.4062 159.749 22.6667 158.812 23.1875C157.895 23.7083 157.093 24.4896 156.405 25.5312C155.739 26.5521 155.187 27.8229 154.749 29.3438C154.312 30.8438 153.989 32.5833 153.78 34.5625ZM211.53 40.625V0H220.593V48H212.437L211.53 40.625ZM190.155 31.5V30.8438C190.155 28.2604 190.447 25.9167 191.03 23.8125C191.614 21.6875 192.468 19.8646 193.593 18.3438C194.718 16.8229 196.103 15.6458 197.749 14.8125C199.395 13.9792 201.27 13.5625 203.374 13.5625C205.353 13.5625 207.082 13.9792 208.562 14.8125C210.062 15.6458 211.332 16.8333 212.374 18.375C213.437 19.8958 214.291 21.6979 214.937 23.7812C215.582 25.8438 216.051 28.1042 216.343 30.5625V32C216.051 34.3542 215.582 36.5417 214.937 38.5625C214.291 40.5833 213.437 42.3542 212.374 43.875C211.332 45.375 210.062 46.5417 208.562 47.375C207.062 48.2083 205.312 48.625 203.312 48.625C201.207 48.625 199.332 48.1979 197.687 47.3438C196.062 46.4896 194.687 45.2917 193.562 43.75C192.457 42.2083 191.614 40.3958 191.03 38.3125C190.447 36.2292 190.155 33.9583 190.155 31.5ZM199.155 30.8438V31.5C199.155 32.8958 199.26 34.1979 199.468 35.4062C199.697 36.6146 200.062 37.6875 200.562 38.625C201.082 39.5417 201.749 40.2604 202.562 40.7812C203.395 41.2812 204.405 41.5312 205.593 41.5312C207.135 41.5312 208.405 41.1875 209.405 40.5C210.405 39.7917 211.166 38.8229 211.687 37.5938C212.228 36.3646 212.541 34.9479 212.624 33.3438V29.25C212.562 27.9375 212.374 26.7604 212.062 25.7188C211.77 24.6562 211.332 23.75 210.749 23C210.187 22.25 209.478 21.6667 208.624 21.25C207.791 20.8333 206.801 20.625 205.655 20.625C204.489 20.625 203.489 20.8958 202.655 21.4375C201.822 21.9583 201.145 22.6771 200.624 23.5938C200.124 24.5104 199.749 25.5938 199.499 26.8438C199.27 28.0729 199.155 29.4062 199.155 30.8438Z" fill="url(#paint0_linear_27_130)"/>
<path d="M19.8906 57.875V92H12.8828V57.875H19.8906ZM30.3906 57.875V63.3828H2.54688V57.875H30.3906ZM43.4453 92.4688C41.4766 92.4688 39.7109 92.1562 38.1484 91.5312C36.5859 90.8906 35.2578 90.0078 34.1641 88.8828C33.0859 87.7578 32.2578 86.4531 31.6797 84.9688C31.1016 83.4688 30.8125 81.875 30.8125 80.1875V79.25C30.8125 77.3281 31.0859 75.5703 31.6328 73.9766C32.1797 72.3828 32.9609 71 33.9766 69.8281C35.0078 68.6562 36.2578 67.7578 37.7266 67.1328C39.1953 66.4922 40.8516 66.1719 42.6953 66.1719C44.4922 66.1719 46.0859 66.4688 47.4766 67.0625C48.8672 67.6562 50.0312 68.5 50.9688 69.5938C51.9219 70.6875 52.6406 72 53.125 73.5312C53.6094 75.0469 53.8516 76.7344 53.8516 78.5938V81.4062H33.6953V76.9062H47.2188V76.3906C47.2188 75.4531 47.0469 74.6172 46.7031 73.8828C46.375 73.1328 45.875 72.5391 45.2031 72.1016C44.5312 71.6641 43.6719 71.4453 42.625 71.4453C41.7344 71.4453 40.9688 71.6406 40.3281 72.0312C39.6875 72.4219 39.1641 72.9688 38.7578 73.6719C38.3672 74.375 38.0703 75.2031 37.8672 76.1562C37.6797 77.0938 37.5859 78.125 37.5859 79.25V80.1875C37.5859 81.2031 37.7266 82.1406 38.0078 83C38.3047 83.8594 38.7188 84.6016 39.25 85.2266C39.7969 85.8516 40.4531 86.3359 41.2188 86.6797C42 87.0234 42.8828 87.1953 43.8672 87.1953C45.0859 87.1953 46.2188 86.9609 47.2656 86.4922C48.3281 86.0078 49.2422 85.2812 50.0078 84.3125L53.2891 87.875C52.7578 88.6406 52.0312 89.375 51.1094 90.0781C50.2031 90.7812 49.1094 91.3594 47.8281 91.8125C46.5469 92.25 45.0859 92.4688 43.4453 92.4688ZM68.1719 87.1953C69 87.1953 69.7344 87.0391 70.375 86.7266C71.0156 86.3984 71.5156 85.9453 71.875 85.3672C72.25 84.7734 72.4453 84.0781 72.4609 83.2812H78.8125C78.7969 85.0625 78.3203 86.6484 77.3828 88.0391C76.4453 89.4141 75.1875 90.5 73.6094 91.2969C72.0312 92.0781 70.2656 92.4688 68.3125 92.4688C66.3438 92.4688 64.625 92.1406 63.1562 91.4844C61.7031 90.8281 60.4922 89.9219 59.5234 88.7656C58.5547 87.5938 57.8281 86.2344 57.3438 84.6875C56.8594 83.125 56.6172 81.4531 56.6172 79.6719V78.9922C56.6172 77.1953 56.8594 75.5234 57.3438 73.9766C57.8281 72.4141 58.5547 71.0547 59.5234 69.8984C60.4922 68.7266 61.7031 67.8125 63.1562 67.1562C64.6094 66.5 66.3125 66.1719 68.2656 66.1719C70.3438 66.1719 72.1641 66.5703 73.7266 67.3672C75.3047 68.1641 76.5391 69.3047 77.4297 70.7891C78.3359 72.2578 78.7969 74 78.8125 76.0156H72.4609C72.4453 75.1719 72.2656 74.4062 71.9219 73.7188C71.5938 73.0312 71.1094 72.4844 70.4688 72.0781C69.8438 71.6562 69.0703 71.4453 68.1484 71.4453C67.1641 71.4453 66.3594 71.6562 65.7344 72.0781C65.1094 72.4844 64.625 73.0469 64.2812 73.7656C63.9375 74.4688 63.6953 75.2734 63.5547 76.1797C63.4297 77.0703 63.3672 78.0078 63.3672 78.9922V79.6719C63.3672 80.6562 63.4297 81.6016 63.5547 82.5078C63.6797 83.4141 63.9141 84.2188 64.2578 84.9219C64.6172 85.625 65.1094 86.1797 65.7344 86.5859C66.3594 86.9922 67.1719 87.1953 68.1719 87.1953ZM89.3125 56V92H82.5625V56H89.3125ZM88.3516 78.4297H86.5C86.5156 76.6641 86.75 75.0391 87.2031 73.5547C87.6562 72.0547 88.3047 70.7578 89.1484 69.6641C89.9922 68.5547 91 67.6953 92.1719 67.0859C93.3594 66.4766 94.6719 66.1719 96.1094 66.1719C97.3594 66.1719 98.4922 66.3516 99.5078 66.7109C100.539 67.0547 101.422 67.6172 102.156 68.3984C102.906 69.1641 103.484 70.1719 103.891 71.4219C104.297 72.6719 104.5 74.1875 104.5 75.9688V92H97.7031V75.9219C97.7031 74.7969 97.5391 73.9141 97.2109 73.2734C96.8984 72.6172 96.4375 72.1562 95.8281 71.8906C95.2344 71.6094 94.5 71.4688 93.625 71.4688C92.6562 71.4688 91.8281 71.6484 91.1406 72.0078C90.4688 72.3672 89.9297 72.8672 89.5234 73.5078C89.1172 74.1328 88.8203 74.8672 88.6328 75.7109C88.4453 76.5547 88.3516 77.4609 88.3516 78.4297ZM116.242 72.0547V92H109.492V66.6406H115.82L116.242 72.0547ZM115.258 78.4297H113.43C113.43 76.5547 113.672 74.8672 114.156 73.3672C114.641 71.8516 115.32 70.5625 116.195 69.5C117.07 68.4219 118.109 67.6016 119.312 67.0391C120.531 66.4609 121.891 66.1719 123.391 66.1719C124.578 66.1719 125.664 66.3438 126.648 66.6875C127.633 67.0312 128.477 67.5781 129.18 68.3281C129.898 69.0781 130.445 70.0703 130.82 71.3047C131.211 72.5391 131.406 74.0469 131.406 75.8281V92H124.609V75.8047C124.609 74.6797 124.453 73.8047 124.141 73.1797C123.828 72.5547 123.367 72.1172 122.758 71.8672C122.164 71.6016 121.43 71.4688 120.555 71.4688C119.648 71.4688 118.859 71.6484 118.188 72.0078C117.531 72.3672 116.984 72.8672 116.547 73.5078C116.125 74.1328 115.805 74.8672 115.586 75.7109C115.367 76.5547 115.258 77.4609 115.258 78.4297ZM135.461 79.5781V79.0859C135.461 77.2266 135.727 75.5156 136.258 73.9531C136.789 72.375 137.562 71.0078 138.578 69.8516C139.594 68.6953 140.844 67.7969 142.328 67.1562C143.812 66.5 145.516 66.1719 147.438 66.1719C149.359 66.1719 151.07 66.5 152.57 67.1562C154.07 67.7969 155.328 68.6953 156.344 69.8516C157.375 71.0078 158.156 72.375 158.688 73.9531C159.219 75.5156 159.484 77.2266 159.484 79.0859V79.5781C159.484 81.4219 159.219 83.1328 158.688 84.7109C158.156 86.2734 157.375 87.6406 156.344 88.8125C155.328 89.9688 154.078 90.8672 152.594 91.5078C151.109 92.1484 149.406 92.4688 147.484 92.4688C145.562 92.4688 143.852 92.1484 142.352 91.5078C140.867 90.8672 139.609 89.9688 138.578 88.8125C137.562 87.6406 136.789 86.2734 136.258 84.7109C135.727 83.1328 135.461 81.4219 135.461 79.5781ZM142.211 79.0859V79.5781C142.211 80.6406 142.305 81.6328 142.492 82.5547C142.68 83.4766 142.977 84.2891 143.383 84.9922C143.805 85.6797 144.352 86.2188 145.023 86.6094C145.695 87 146.516 87.1953 147.484 87.1953C148.422 87.1953 149.227 87 149.898 86.6094C150.57 86.2188 151.109 85.6797 151.516 84.9922C151.922 84.2891 152.219 83.4766 152.406 82.5547C152.609 81.6328 152.711 80.6406 152.711 79.5781V79.0859C152.711 78.0547 152.609 77.0859 152.406 76.1797C152.219 75.2578 151.914 74.4453 151.492 73.7422C151.086 73.0234 150.547 72.4609 149.875 72.0547C149.203 71.6484 148.391 71.4453 147.438 71.4453C146.484 71.4453 145.672 71.6484 145 72.0547C144.344 72.4609 143.805 73.0234 143.383 73.7422C142.977 74.4453 142.68 75.2578 142.492 76.1797C142.305 77.0859 142.211 78.0547 142.211 79.0859ZM170.758 56V92H163.984V56H170.758ZM175.258 79.5781V79.0859C175.258 77.2266 175.523 75.5156 176.055 73.9531C176.586 72.375 177.359 71.0078 178.375 69.8516C179.391 68.6953 180.641 67.7969 182.125 67.1562C183.609 66.5 185.312 66.1719 187.234 66.1719C189.156 66.1719 190.867 66.5 192.367 67.1562C193.867 67.7969 195.125 68.6953 196.141 69.8516C197.172 71.0078 197.953 72.375 198.484 73.9531C199.016 75.5156 199.281 77.2266 199.281 79.0859V79.5781C199.281 81.4219 199.016 83.1328 198.484 84.7109C197.953 86.2734 197.172 87.6406 196.141 88.8125C195.125 89.9688 193.875 90.8672 192.391 91.5078C190.906 92.1484 189.203 92.4688 187.281 92.4688C185.359 92.4688 183.648 92.1484 182.148 91.5078C180.664 90.8672 179.406 89.9688 178.375 88.8125C177.359 87.6406 176.586 86.2734 176.055 84.7109C175.523 83.1328 175.258 81.4219 175.258 79.5781ZM182.008 79.0859V79.5781C182.008 80.6406 182.102 81.6328 182.289 82.5547C182.477 83.4766 182.773 84.2891 183.18 84.9922C183.602 85.6797 184.148 86.2188 184.82 86.6094C185.492 87 186.312 87.1953 187.281 87.1953C188.219 87.1953 189.023 87 189.695 86.6094C190.367 86.2188 190.906 85.6797 191.312 84.9922C191.719 84.2891 192.016 83.4766 192.203 82.5547C192.406 81.6328 192.508 80.6406 192.508 79.5781V79.0859C192.508 78.0547 192.406 77.0859 192.203 76.1797C192.016 75.2578 191.711 74.4453 191.289 73.7422C190.883 73.0234 190.344 72.4609 189.672 72.0547C189 71.6484 188.188 71.4453 187.234 71.4453C186.281 71.4453 185.469 71.6484 184.797 72.0547C184.141 72.4609 183.602 73.0234 183.18 73.7422C182.773 74.4453 182.477 75.2578 182.289 76.1797C182.102 77.0859 182.008 78.0547 182.008 79.0859ZM219.484 66.6406H225.602V91.1562C225.602 93.4688 225.086 95.4297 224.055 97.0391C223.039 98.6641 221.617 99.8906 219.789 100.719C217.961 101.562 215.836 101.984 213.414 101.984C212.352 101.984 211.227 101.844 210.039 101.562C208.867 101.281 207.742 100.844 206.664 100.25C205.602 99.6562 204.711 98.9062 203.992 98L206.969 94.0156C207.75 94.9219 208.656 95.625 209.688 96.125C210.719 96.6406 211.859 96.8984 213.109 96.8984C214.328 96.8984 215.359 96.6719 216.203 96.2188C217.047 95.7812 217.695 95.1328 218.148 94.2734C218.602 93.4297 218.828 92.4062 218.828 91.2031V72.5L219.484 66.6406ZM202.422 79.625V79.1328C202.422 77.1953 202.656 75.4375 203.125 73.8594C203.609 72.2656 204.289 70.8984 205.164 69.7578C206.055 68.6172 207.133 67.7344 208.398 67.1094C209.664 66.4844 211.094 66.1719 212.688 66.1719C214.375 66.1719 215.789 66.4844 216.93 67.1094C218.07 67.7344 219.008 68.625 219.742 69.7812C220.477 70.9219 221.047 72.2734 221.453 73.8359C221.875 75.3828 222.203 77.0781 222.438 78.9219V80C222.203 81.7656 221.852 83.4062 221.383 84.9219C220.914 86.4375 220.297 87.7656 219.531 88.9062C218.766 90.0312 217.812 90.9062 216.672 91.5312C215.547 92.1562 214.203 92.4688 212.641 92.4688C211.078 92.4688 209.664 92.1484 208.398 91.5078C207.148 90.8672 206.078 89.9688 205.188 88.8125C204.297 87.6562 203.609 86.2969 203.125 84.7344C202.656 83.1719 202.422 81.4688 202.422 79.625ZM209.172 79.1328V79.625C209.172 80.6719 209.273 81.6484 209.477 82.5547C209.68 83.4609 209.992 84.2656 210.414 84.9688C210.852 85.6562 211.391 86.1953 212.031 86.5859C212.688 86.9609 213.461 87.1484 214.352 87.1484C215.586 87.1484 216.594 86.8906 217.375 86.375C218.156 85.8438 218.742 85.1172 219.133 84.1953C219.523 83.2734 219.75 82.2109 219.812 81.0078V77.9375C219.781 76.9531 219.648 76.0703 219.414 75.2891C219.18 74.4922 218.852 73.8125 218.43 73.25C218.008 72.6875 217.461 72.25 216.789 71.9375C216.117 71.625 215.32 71.4688 214.398 71.4688C213.508 71.4688 212.734 71.6719 212.078 72.0781C211.438 72.4688 210.898 73.0078 210.461 73.6953C210.039 74.3828 209.719 75.1953 209.5 76.1328C209.281 77.0547 209.172 78.0547 209.172 79.1328ZM238.375 89.1406L245.102 66.6406H252.344L242.148 95.8203C241.93 96.4609 241.633 97.1484 241.258 97.8828C240.898 98.6172 240.406 99.3125 239.781 99.9688C239.172 100.641 238.398 101.188 237.461 101.609C236.539 102.031 235.406 102.242 234.062 102.242C233.422 102.242 232.898 102.203 232.492 102.125C232.086 102.047 231.602 101.938 231.039 101.797V96.8516C231.211 96.8516 231.391 96.8516 231.578 96.8516C231.766 96.8672 231.945 96.875 232.117 96.875C233.008 96.875 233.734 96.7734 234.297 96.5703C234.859 96.3672 235.312 96.0547 235.656 95.6328C236 95.2266 236.273 94.6953 236.477 94.0391L238.375 89.1406ZM235.562 66.6406L241.07 85.0156L242.031 92.1641L237.438 92.6562L228.32 66.6406H235.562Z" fill="url(#paint1_linear_27_130)"/>
<defs>
<linearGradient id="paint0_linear_27_130" x1="19.2452" y1="26.2566" x2="234.503" y2="26.2566" gradientUnits="userSpaceOnUse">
<stop stop-color="#4481EB"/>
<stop offset="1" stop-color="#04BEFE"/>
</linearGradient>
<linearGradient id="paint1_linear_27_130" x1="0" y1="76" x2="254" y2="76" gradientUnits="userSpaceOnUse">
<stop stop-color="#4481EB"/>
<stop offset="1" stop-color="#04BEFE"/>
</linearGradient>
</defs>
</svg>
