<svg width="2114" height="362" viewBox="0 0 2114 362" fill="none" xmlns="http://www.w3.org/2000/svg">
<path fill-rule="evenodd" clip-rule="evenodd" d="M0 71.2V135.6H14.3967V232.2H28.7933V135.6H43.19V296.6H57.5867V167.8H71.9833V71.2H85.8658V167.8H100.262V71.2H114.659V39H129.056V167.8H143.452V71.2H157.849V167.8H172.246V296.6H186.643V167.8H201.039V264.4H215.436H229.832V232.2H243.715V328.8H258.112H272.508V232.2H286.905V264.4H301.302V39H315.698H330.095V232.2H344.492H358.888V328.8H373.285V232.2H387.167V200H401.564V167.8H415.961V328.8H430.357V296.6H444.754V328.8H459.151V200H473.547V167.8H487.944V328.8H502.341V103.4H516.737V167.8H531.134V71.2H545.017V167.8H559.413V232.2H573.81V264.4H588.207V361H602.603V71.2H617V361H602.603H588.207H573.81H559.413H545.017H531.134H516.737H502.341H487.944H473.547H459.151H444.754H430.357H415.961H401.564H387.167H373.285H358.888H344.492H330.095H315.698H301.302H286.905H272.508H258.112H243.715H229.832H215.436H201.039H186.643H172.246H157.849H143.452H129.056H114.659H100.262H85.8658H71.9833H57.5867H43.19H28.7933H14.3967H0V71.2Z" fill="#1C1C1C" fill-opacity="0.07"/>
<path fill-rule="evenodd" clip-rule="evenodd" d="M1497 71.2V135.6H1511.4V232.2H1525.79V135.6H1540.19V296.6H1554.59V167.8H1568.98V71.2H1582.87V167.8H1597.26V71.2H1611.66V39H1626.06V167.8H1640.45V71.2H1654.85V167.8H1669.25V296.6H1683.64V167.8H1698.04V264.4H1712.44H1726.83V232.2H1740.71V328.8H1755.11H1769.51V232.2H1783.9V264.4H1798.3V39H1812.7H1827.1V232.2H1841.49H1855.89V328.8H1870.29V232.2H1884.17V200H1898.56V167.8H1912.96V328.8H1927.36V296.6H1941.75V328.8H1956.15V200H1970.55V167.8H1984.94V328.8H1999.34V103.4H2013.74V167.8H2028.13V71.2H2042.02V167.8H2056.41V232.2H2070.81V264.4H2085.21V361H2099.6V71.2H2114V361H2099.6H2085.21H2070.81H2056.41H2042.02H2028.13H2013.74H1999.34H1984.94H1970.55H1956.15H1941.75H1927.36H1912.96H1898.56H1884.17H1870.29H1855.89H1841.49H1827.1H1812.7H1798.3H1783.9H1769.51H1755.11H1740.71H1726.83H1712.44H1698.04H1683.64H1669.25H1654.85H1640.45H1626.06H1611.66H1597.26H1582.87H1568.98H1554.59H1540.19H1525.79H1511.4H1497V71.2Z" fill="#1C1C1C" fill-opacity="0.07"/>
<path fill-rule="evenodd" clip-rule="evenodd" d="M631 253.4V0H648.32V217.2H666.362V325.8H683.682V289.6H701.723V217.2H719.043V181H737.085V253.4H754.405V144.8H772.447V253.4H789.767V36.2H807.808H825.128V253.4H843.17V108.6H860.49V217.2H878.532V144.8H895.852V36.2H913.893V325.8H931.213V217.2H949.255V253.4H966.575V144.8H984.617V362H1001.94V36.2H1019.98V253.4H1037.3V362H1055.34V253.4H1072.66H1090.7V72.4H1108.02V181H1126.06V36.2H1143.38V0H1161.43V325.8H1178.74V144.8H1196.79V181H1214.11V289.6H1232.15V325.8H1249.47V108.6H1267.51V325.8H1284.83V108.6H1302.87V325.8H1320.19V36.2H1338.23V0H1355.55V108.6H1373.6V289.6H1390.92V325.8H1408.96V36.2H1426.28V144.8H1444.32V72.4H1461.64V108.6H1479.68H1497V362H1479.68H1461.64H1444.32H1426.28H1408.96H1390.92H1373.6H1355.55H1338.23H1320.19H1302.87H1284.83H1267.51H1249.47H1232.15H1214.11H1196.79H1178.74H1161.43H1143.38H1126.06H1108.02H1090.7H1072.66H1055.34H1037.3H1019.98H1001.94H984.617H966.575H949.255H931.213H913.893H895.852H878.532H860.49H843.17H825.128H807.808H789.767H772.447H754.405H737.085H719.043H701.723H683.682H666.362H648.32H631V253.4Z" fill="#1C1C1C" fill-opacity="0.08"/>
</svg>
