<svg width="444" height="535" viewBox="0 0 444 535" fill="none" xmlns="http://www.w3.org/2000/svg">
<g filter="url(#filter0_d_154_58)">
<rect x="4" width="436" height="527" fill="#434141"/>
</g>
<rect x="89" y="231" width="351" height="296" fill="#39A0ED"/>
<path d="M121.536 472.576C119.403 472.576 117.579 472.203 116.064 471.456C114.571 470.709 113.365 469.739 112.448 468.544C111.531 467.349 110.859 466.059 110.432 464.672C110.005 463.264 109.792 461.909 109.792 460.608V459.904C109.792 458.496 110.005 457.088 110.432 455.68C110.88 454.272 111.563 452.992 112.48 451.84C113.397 450.688 114.592 449.76 116.064 449.056C117.536 448.352 119.296 448 121.344 448C123.435 448 125.227 448.363 126.72 449.088C128.213 449.813 129.397 450.827 130.272 452.128C131.147 453.429 131.68 454.965 131.872 456.736H128.672C128.501 455.413 128.075 454.325 127.392 453.472C126.709 452.597 125.845 451.947 124.8 451.52C123.776 451.093 122.624 450.88 121.344 450.88C119.957 450.88 118.741 451.125 117.696 451.616C116.651 452.085 115.776 452.757 115.072 453.632C114.389 454.485 113.867 455.477 113.504 456.608C113.163 457.739 112.992 458.965 112.992 460.288C112.992 461.547 113.163 462.741 113.504 463.872C113.867 465.003 114.4 466.005 115.104 466.88C115.829 467.755 116.725 468.448 117.792 468.96C118.859 469.451 120.107 469.696 121.536 469.696C123.541 469.696 125.227 469.195 126.592 468.192C127.957 467.189 128.789 465.739 129.088 463.84H132.288C132.075 465.44 131.531 466.901 130.656 468.224C129.803 469.547 128.608 470.603 127.072 471.392C125.557 472.181 123.712 472.576 121.536 472.576ZM144.254 472.576C142.76 472.576 141.448 472.32 140.318 471.808C139.187 471.296 138.227 470.624 137.438 469.792C136.67 468.939 136.083 467.989 135.678 466.944C135.294 465.899 135.102 464.832 135.102 463.744V463.168C135.102 462.08 135.304 461.013 135.71 459.968C136.115 458.901 136.712 457.952 137.502 457.12C138.291 456.267 139.251 455.595 140.382 455.104C141.512 454.592 142.803 454.336 144.254 454.336C145.704 454.336 146.995 454.592 148.126 455.104C149.256 455.595 150.216 456.267 151.006 457.12C151.795 457.952 152.392 458.901 152.798 459.968C153.203 461.013 153.406 462.08 153.406 463.168V463.744C153.406 464.832 153.203 465.899 152.798 466.944C152.414 467.989 151.827 468.939 151.038 469.792C150.27 470.624 149.32 471.296 148.19 471.808C147.059 472.32 145.747 472.576 144.254 472.576ZM144.254 469.824C145.534 469.824 146.622 469.547 147.518 468.992C148.435 468.416 149.128 467.648 149.597 466.688C150.088 465.728 150.333 464.651 150.333 463.456C150.333 462.24 150.088 461.152 149.597 460.192C149.107 459.232 148.403 458.475 147.486 457.92C146.59 457.365 145.512 457.088 144.254 457.088C143.016 457.088 141.939 457.365 141.022 457.92C140.104 458.475 139.4 459.232 138.91 460.192C138.419 461.152 138.174 462.24 138.174 463.456C138.174 464.651 138.408 465.728 138.878 466.688C139.368 467.648 140.062 468.416 140.958 468.992C141.875 469.547 142.974 469.824 144.254 469.824ZM158.007 472V454.912H160.439V462.24H160.055C160.055 460.576 160.268 459.168 160.695 458.016C161.143 456.843 161.804 455.947 162.679 455.328C163.553 454.709 164.663 454.4 166.007 454.4H166.135C167.479 454.4 168.588 454.709 169.463 455.328C170.359 455.947 171.02 456.843 171.447 458.016C171.873 459.168 172.087 460.576 172.087 462.24H171.191C171.191 460.576 171.415 459.168 171.863 458.016C172.311 456.843 172.972 455.947 173.847 455.328C174.743 454.709 175.863 454.4 177.207 454.4H177.335C178.679 454.4 179.799 454.709 180.695 455.328C181.591 455.947 182.252 456.843 182.679 458.016C183.127 459.168 183.351 460.576 183.351 462.24V472H180.279V461.568C180.279 460.181 179.937 459.115 179.255 458.368C178.572 457.6 177.623 457.216 176.407 457.216C175.148 457.216 174.135 457.621 173.367 458.432C172.599 459.221 172.215 460.331 172.215 461.76V472H169.143V461.568C169.143 460.181 168.801 459.115 168.119 458.368C167.436 457.6 166.487 457.216 165.271 457.216C164.012 457.216 162.999 457.621 162.231 458.432C161.463 459.221 161.079 460.331 161.079 461.76V472H158.007ZM196.239 472.576C194.746 472.576 193.455 472.32 192.367 471.808C191.279 471.296 190.394 470.624 189.711 469.792C189.029 468.939 188.517 467.989 188.175 466.944C187.855 465.899 187.695 464.832 187.695 463.744V463.168C187.695 462.059 187.855 460.981 188.175 459.936C188.517 458.891 189.029 457.952 189.711 457.12C190.394 456.267 191.258 455.595 192.303 455.104C193.37 454.592 194.618 454.336 196.047 454.336C197.903 454.336 199.429 454.741 200.623 455.552C201.839 456.341 202.735 457.365 203.311 458.624C203.909 459.883 204.207 461.227 204.207 462.656V464.032H189.039V461.728H201.967L201.263 462.976C201.263 461.76 201.071 460.715 200.687 459.84C200.303 458.944 199.727 458.251 198.959 457.76C198.191 457.269 197.221 457.024 196.047 457.024C194.831 457.024 193.818 457.301 193.007 457.856C192.218 458.411 191.621 459.168 191.215 460.128C190.831 461.088 190.639 462.197 190.639 463.456C190.639 464.672 190.831 465.771 191.215 466.752C191.621 467.712 192.239 468.48 193.071 469.056C193.903 469.611 194.959 469.888 196.239 469.888C197.583 469.888 198.671 469.589 199.503 468.992C200.357 468.395 200.869 467.701 201.039 466.912H203.919C203.685 468.085 203.215 469.099 202.511 469.952C201.807 470.805 200.922 471.456 199.855 471.904C198.789 472.352 197.583 472.576 196.239 472.576ZM208.569 472V454.912H211.001V461.952H210.873C210.873 459.456 211.417 457.632 212.505 456.48C213.614 455.307 215.268 454.72 217.465 454.72H218.041V457.472H216.953C215.246 457.472 213.934 457.931 213.017 458.848C212.1 459.744 211.641 461.045 211.641 462.752V472H208.569ZM228.835 472.576C227.363 472.576 226.083 472.32 224.995 471.808C223.928 471.296 223.043 470.613 222.339 469.76C221.635 468.885 221.101 467.925 220.739 466.88C220.397 465.835 220.227 464.789 220.227 463.744V463.168C220.227 462.08 220.397 461.013 220.739 459.968C221.101 458.923 221.635 457.984 222.339 457.152C223.064 456.299 223.96 455.616 225.027 455.104C226.093 454.592 227.341 454.336 228.771 454.336C230.2 454.336 231.48 454.603 232.611 455.136C233.763 455.669 234.68 456.427 235.363 457.408C236.067 458.368 236.461 459.509 236.547 460.832H233.603C233.453 459.765 232.963 458.88 232.131 458.176C231.299 457.451 230.179 457.088 228.771 457.088C227.555 457.088 226.541 457.365 225.731 457.92C224.92 458.475 224.312 459.232 223.907 460.192C223.501 461.152 223.299 462.24 223.299 463.456C223.299 464.629 223.501 465.707 223.907 466.688C224.312 467.648 224.92 468.416 225.731 468.992C226.563 469.547 227.597 469.824 228.835 469.824C229.795 469.824 230.627 469.653 231.331 469.312C232.035 468.971 232.6 468.512 233.027 467.936C233.453 467.36 233.709 466.709 233.795 465.984H236.739C236.675 467.328 236.28 468.491 235.555 469.472C234.851 470.453 233.912 471.221 232.739 471.776C231.587 472.309 230.285 472.576 228.835 472.576ZM241.745 472V454.912H244.817V472H241.745ZM239.121 457.344V454.912H244.817V457.344H239.121ZM242.609 452.16C241.926 452.16 241.414 451.979 241.073 451.616C240.753 451.253 240.593 450.795 240.593 450.24C240.593 449.685 240.753 449.227 241.073 448.864C241.414 448.501 241.926 448.32 242.609 448.32C243.291 448.32 243.793 448.501 244.113 448.864C244.454 449.227 244.625 449.685 244.625 450.24C244.625 450.795 244.454 451.253 244.113 451.616C243.793 451.979 243.291 452.16 242.609 452.16ZM261.093 472V466.88H260.581V460.96C260.581 459.787 260.271 458.901 259.653 458.304C259.055 457.707 258.17 457.408 256.997 457.408C256.335 457.408 255.653 457.419 254.949 457.44C254.245 457.461 253.573 457.483 252.933 457.504C252.293 457.525 251.738 457.557 251.269 457.6V454.912C251.738 454.869 252.229 454.837 252.741 454.816C253.274 454.773 253.818 454.752 254.373 454.752C254.927 454.731 255.461 454.72 255.973 454.72C257.722 454.72 259.151 454.933 260.261 455.36C261.37 455.765 262.191 456.437 262.725 457.376C263.258 458.315 263.525 459.584 263.525 461.184V472H261.093ZM255.493 472.448C254.213 472.448 253.103 472.235 252.165 471.808C251.247 471.36 250.533 470.72 250.021 469.888C249.53 469.056 249.285 468.053 249.285 466.88C249.285 465.664 249.551 464.651 250.085 463.84C250.639 463.029 251.439 462.421 252.485 462.016C253.53 461.589 254.789 461.376 256.26 461.376H260.901V463.68H256.133C254.895 463.68 253.946 463.979 253.285 464.576C252.623 465.173 252.293 465.941 252.293 466.88C252.293 467.819 252.623 468.576 253.285 469.152C253.946 469.728 254.895 470.016 256.133 470.016C256.858 470.016 257.551 469.888 258.213 469.632C258.874 469.355 259.418 468.907 259.845 468.288C260.293 467.648 260.538 466.773 260.581 465.664L261.413 466.88C261.306 468.096 261.007 469.12 260.517 469.952C260.047 470.763 259.386 471.381 258.533 471.808C257.701 472.235 256.687 472.448 255.493 472.448ZM269.355 472V448.64H272.427V472H269.355ZM266.987 451.072V448.64H272.427V451.072H266.987ZM279.151 472V454.912H282.223V472H279.151ZM276.527 457.344V454.912H282.223V457.344H276.527ZM280.015 452.16C279.332 452.16 278.82 451.979 278.479 451.616C278.159 451.253 277.999 450.795 277.999 450.24C277.999 449.685 278.159 449.227 278.479 448.864C278.82 448.501 279.332 448.32 280.015 448.32C280.698 448.32 281.199 448.501 281.519 448.864C281.86 449.227 282.031 449.685 282.031 450.24C282.031 450.795 281.86 451.253 281.519 451.616C281.199 451.979 280.698 452.16 280.015 452.16ZM287.075 472V468.576L296.387 457.408V457.92L295.875 457.152L296.291 457.344H286.947V454.912H299.107V458.336L289.795 469.504V469.056L290.371 469.856L289.923 469.568H299.619V472H287.075ZM314.124 472V466.88H313.612V460.96C313.612 459.787 313.302 458.901 312.684 458.304C312.086 457.707 311.201 457.408 310.028 457.408C309.366 457.408 308.684 457.419 307.98 457.44C307.276 457.461 306.604 457.483 305.964 457.504C305.324 457.525 304.769 457.557 304.3 457.6V454.912C304.769 454.869 305.26 454.837 305.772 454.816C306.305 454.773 306.849 454.752 307.404 454.752C307.958 454.731 308.492 454.72 309.004 454.72C310.753 454.72 312.182 454.933 313.292 455.36C314.401 455.765 315.222 456.437 315.756 457.376C316.289 458.315 316.556 459.584 316.556 461.184V472H314.124ZM308.524 472.448C307.244 472.448 306.134 472.235 305.196 471.808C304.278 471.36 303.564 470.72 303.052 469.888C302.561 469.056 302.316 468.053 302.316 466.88C302.316 465.664 302.582 464.651 303.116 463.84C303.67 463.029 304.47 462.421 305.516 462.016C306.561 461.589 307.82 461.376 309.292 461.376H313.932V463.68H309.164C307.926 463.68 306.977 463.979 306.316 464.576C305.654 465.173 305.324 465.941 305.324 466.88C305.324 467.819 305.654 468.576 306.316 469.152C306.977 469.728 307.926 470.016 309.164 470.016C309.889 470.016 310.582 469.888 311.244 469.632C311.905 469.355 312.449 468.907 312.876 468.288C313.324 467.648 313.569 466.773 313.612 465.664L314.444 466.88C314.337 468.096 314.038 469.12 313.548 469.952C313.078 470.763 312.417 471.381 311.564 471.808C310.732 472.235 309.718 472.448 308.524 472.448ZM329.522 472.576C328.05 472.576 326.77 472.32 325.682 471.808C324.615 471.296 323.73 470.613 323.026 469.76C322.322 468.885 321.789 467.925 321.426 466.88C321.085 465.835 320.914 464.789 320.914 463.744V463.168C320.914 462.08 321.085 461.013 321.426 459.968C321.789 458.923 322.322 457.984 323.026 457.152C323.751 456.299 324.647 455.616 325.714 455.104C326.781 454.592 328.029 454.336 329.458 454.336C330.887 454.336 332.167 454.603 333.298 455.136C334.45 455.669 335.367 456.427 336.05 457.408C336.754 458.368 337.149 459.509 337.234 460.832H334.29C334.141 459.765 333.65 458.88 332.818 458.176C331.986 457.451 330.866 457.088 329.458 457.088C328.242 457.088 327.229 457.365 326.418 457.92C325.607 458.475 324.999 459.232 324.594 460.192C324.189 461.152 323.986 462.24 323.986 463.456C323.986 464.629 324.189 465.707 324.594 466.688C324.999 467.648 325.607 468.416 326.418 468.992C327.25 469.547 328.285 469.824 329.522 469.824C330.482 469.824 331.314 469.653 332.018 469.312C332.722 468.971 333.287 468.512 333.714 467.936C334.141 467.36 334.397 466.709 334.482 465.984H337.426C337.362 467.328 336.967 468.491 336.242 469.472C335.538 470.453 334.599 471.221 333.426 471.776C332.274 472.309 330.973 472.576 329.522 472.576ZM342.432 472V454.912H345.504V472H342.432ZM339.808 457.344V454.912H345.504V457.344H339.808ZM343.296 452.16C342.614 452.16 342.102 451.979 341.76 451.616C341.44 451.253 341.28 450.795 341.28 450.24C341.28 449.685 341.44 449.227 341.76 448.864C342.102 448.501 342.614 448.32 343.296 448.32C343.979 448.32 344.48 448.501 344.8 448.864C345.142 449.227 345.312 449.685 345.312 450.24C345.312 450.795 345.142 451.253 344.8 451.616C344.48 451.979 343.979 452.16 343.296 452.16ZM359.316 472.576C357.823 472.576 356.511 472.32 355.38 471.808C354.249 471.296 353.289 470.624 352.5 469.792C351.732 468.939 351.145 467.989 350.74 466.944C350.356 465.899 350.164 464.832 350.164 463.744V463.168C350.164 462.08 350.367 461.013 350.772 459.968C351.177 458.901 351.775 457.952 352.564 457.12C353.353 456.267 354.313 455.595 355.444 455.104C356.575 454.592 357.865 454.336 359.316 454.336C360.767 454.336 362.057 454.592 363.188 455.104C364.319 455.595 365.279 456.267 366.068 457.12C366.857 457.952 367.455 458.901 367.86 459.968C368.265 461.013 368.468 462.08 368.468 463.168V463.744C368.468 464.832 368.265 465.899 367.86 466.944C367.476 467.989 366.889 468.939 366.1 469.792C365.332 470.624 364.383 471.296 363.252 471.808C362.121 472.32 360.809 472.576 359.316 472.576ZM359.316 469.824C360.596 469.824 361.684 469.547 362.58 468.992C363.497 468.416 364.191 467.648 364.66 466.688C365.151 465.728 365.396 464.651 365.396 463.456C365.396 462.24 365.151 461.152 364.66 460.192C364.169 459.232 363.465 458.475 362.548 457.92C361.652 457.365 360.575 457.088 359.316 457.088C358.079 457.088 357.001 457.365 356.084 457.92C355.167 458.475 354.463 459.232 353.972 460.192C353.481 461.152 353.236 462.24 353.236 463.456C353.236 464.651 353.471 465.728 353.94 466.688C354.431 467.648 355.124 468.416 356.02 468.992C356.937 469.547 358.036 469.824 359.316 469.824ZM357.748 452.416L360.564 446.08H363.796L360.244 452.416H357.748ZM373.069 472V454.912H375.501V462.24H375.117C375.117 460.555 375.341 459.136 375.789 457.984C376.258 456.811 376.962 455.925 377.901 455.328C378.84 454.709 380.024 454.4 381.453 454.4H381.581C383.736 454.4 385.325 455.072 386.349 456.416C387.394 457.76 387.917 459.701 387.917 462.24V472H384.845V461.6C384.845 460.277 384.472 459.221 383.725 458.432C382.978 457.621 381.954 457.216 380.653 457.216C379.309 457.216 378.221 457.632 377.389 458.464C376.557 459.296 376.141 460.405 376.141 461.792V472H373.069Z" fill="white"/>
<path d="M111.392 409V385.64H114.528V409H111.392ZM113.888 398.6V395.784L123.904 395.752V398.568L113.888 398.6ZM113.888 388.456V385.64H124.448V388.456H113.888ZM138.624 409V403.88H138.112V397.96C138.112 396.787 137.802 395.901 137.184 395.304C136.586 394.707 135.701 394.408 134.528 394.408C133.866 394.408 133.184 394.419 132.48 394.44C131.776 394.461 131.104 394.483 130.464 394.504C129.824 394.525 129.269 394.557 128.8 394.6V391.912C129.269 391.869 129.76 391.837 130.272 391.816C130.805 391.773 131.349 391.752 131.904 391.752C132.458 391.731 132.992 391.72 133.504 391.72C135.253 391.72 136.682 391.933 137.792 392.36C138.901 392.765 139.722 393.437 140.256 394.376C140.789 395.315 141.056 396.584 141.056 398.184V409H138.624ZM133.024 409.448C131.744 409.448 130.634 409.235 129.696 408.808C128.778 408.36 128.064 407.72 127.552 406.888C127.061 406.056 126.816 405.053 126.816 403.88C126.816 402.664 127.082 401.651 127.616 400.84C128.17 400.029 128.97 399.421 130.016 399.016C131.061 398.589 132.32 398.376 133.792 398.376H138.432V400.68H133.664C132.426 400.68 131.477 400.979 130.816 401.576C130.154 402.173 129.824 402.941 129.824 403.88C129.824 404.819 130.154 405.576 130.816 406.152C131.477 406.728 132.426 407.016 133.664 407.016C134.389 407.016 135.082 406.888 135.744 406.632C136.405 406.355 136.949 405.907 137.376 405.288C137.824 404.648 138.069 403.773 138.112 402.664L138.944 403.88C138.837 405.096 138.538 406.12 138.048 406.952C137.578 407.763 136.917 408.381 136.064 408.808C135.232 409.235 134.218 409.448 133.024 409.448ZM155.718 409.576C154.31 409.576 153.051 409.267 151.942 408.648C150.854 408.029 149.99 407.133 149.35 405.96C148.71 404.765 148.358 403.336 148.294 401.672H149.126V409H146.694V385.64H149.766V397L148.678 399.336C148.763 397.48 149.137 395.965 149.798 394.792C150.459 393.619 151.323 392.755 152.39 392.2C153.478 391.624 154.673 391.336 155.974 391.336C157.19 391.336 158.299 391.571 159.302 392.04C160.305 392.488 161.169 393.117 161.894 393.928C162.619 394.717 163.174 395.645 163.558 396.712C163.942 397.757 164.134 398.888 164.134 400.104V400.68C164.134 401.896 163.931 403.037 163.526 404.104C163.142 405.171 162.577 406.12 161.83 406.952C161.083 407.763 160.187 408.403 159.142 408.872C158.118 409.341 156.977 409.576 155.718 409.576ZM155.366 406.888C156.518 406.888 157.521 406.611 158.374 406.056C159.227 405.501 159.889 404.744 160.358 403.784C160.827 402.803 161.062 401.672 161.062 400.392C161.062 399.112 160.817 397.992 160.326 397.032C159.857 396.072 159.195 395.336 158.342 394.824C157.489 394.291 156.497 394.024 155.366 394.024C154.342 394.024 153.393 394.259 152.518 394.728C151.643 395.176 150.939 395.837 150.406 396.712C149.894 397.565 149.638 398.6 149.638 399.816V401.288C149.638 402.461 149.905 403.464 150.438 404.296C150.971 405.128 151.675 405.768 152.55 406.216C153.425 406.664 154.363 406.888 155.366 406.888ZM168.757 409V391.912H171.189V398.952H171.061C171.061 396.456 171.605 394.632 172.693 393.48C173.802 392.307 175.455 391.72 177.653 391.72H178.229V394.472H177.141C175.434 394.472 174.122 394.931 173.205 395.848C172.287 396.744 171.829 398.045 171.829 399.752V409H168.757ZM182.714 409V391.912H185.786V409H182.714ZM180.09 394.344V391.912H185.786V394.344H180.09ZM183.578 389.16C182.895 389.16 182.383 388.979 182.042 388.616C181.722 388.253 181.562 387.795 181.562 387.24C181.562 386.685 181.722 386.227 182.042 385.864C182.383 385.501 182.895 385.32 183.578 385.32C184.26 385.32 184.762 385.501 185.082 385.864C185.423 386.227 185.594 386.685 185.594 387.24C185.594 387.795 185.423 388.253 185.082 388.616C184.762 388.979 184.26 389.16 183.578 389.16ZM199.053 409.576C197.581 409.576 196.301 409.32 195.213 408.808C194.147 408.296 193.261 407.613 192.557 406.76C191.853 405.885 191.32 404.925 190.957 403.88C190.616 402.835 190.445 401.789 190.445 400.744V400.168C190.445 399.08 190.616 398.013 190.957 396.968C191.32 395.923 191.853 394.984 192.557 394.152C193.283 393.299 194.179 392.616 195.245 392.104C196.312 391.592 197.56 391.336 198.989 391.336C200.419 391.336 201.699 391.603 202.829 392.136C203.981 392.669 204.899 393.427 205.581 394.408C206.285 395.368 206.68 396.509 206.765 397.832H203.821C203.672 396.765 203.181 395.88 202.349 395.176C201.517 394.451 200.397 394.088 198.989 394.088C197.773 394.088 196.76 394.365 195.949 394.92C195.139 395.475 194.531 396.232 194.125 397.192C193.72 398.152 193.517 399.24 193.517 400.456C193.517 401.629 193.72 402.707 194.125 403.688C194.531 404.648 195.139 405.416 195.949 405.992C196.781 406.547 197.816 406.824 199.053 406.824C200.013 406.824 200.845 406.653 201.549 406.312C202.253 405.971 202.819 405.512 203.245 404.936C203.672 404.36 203.928 403.709 204.013 402.984H206.957C206.893 404.328 206.499 405.491 205.773 406.472C205.069 407.453 204.131 408.221 202.957 408.776C201.805 409.309 200.504 409.576 199.053 409.576ZM221.468 409V403.88H220.956V397.96C220.956 396.787 220.646 395.901 220.028 395.304C219.43 394.707 218.545 394.408 217.372 394.408C216.71 394.408 216.028 394.419 215.324 394.44C214.62 394.461 213.948 394.483 213.308 394.504C212.668 394.525 212.113 394.557 211.644 394.6V391.912C212.113 391.869 212.604 391.837 213.116 391.816C213.649 391.773 214.193 391.752 214.748 391.752C215.302 391.731 215.836 391.72 216.348 391.72C218.097 391.72 219.526 391.933 220.636 392.36C221.745 392.765 222.566 393.437 223.1 394.376C223.633 395.315 223.9 396.584 223.9 398.184V409H221.468ZM215.868 409.448C214.588 409.448 213.478 409.235 212.54 408.808C211.622 408.36 210.908 407.72 210.396 406.888C209.905 406.056 209.66 405.053 209.66 403.88C209.66 402.664 209.926 401.651 210.46 400.84C211.014 400.029 211.814 399.421 212.86 399.016C213.905 398.589 215.164 398.376 216.635 398.376H221.276V400.68H216.508C215.27 400.68 214.321 400.979 213.66 401.576C212.998 402.173 212.668 402.941 212.668 403.88C212.668 404.819 212.998 405.576 213.66 406.152C214.321 406.728 215.27 407.016 216.508 407.016C217.233 407.016 217.926 406.888 218.588 406.632C219.249 406.355 219.793 405.907 220.22 405.288C220.668 404.648 220.913 403.773 220.956 402.664L221.788 403.88C221.681 405.096 221.382 406.12 220.892 406.952C220.422 407.763 219.761 408.381 218.908 408.808C218.076 409.235 217.062 409.448 215.868 409.448ZM236.866 409.576C235.394 409.576 234.114 409.32 233.026 408.808C231.959 408.296 231.074 407.613 230.37 406.76C229.666 405.885 229.132 404.925 228.77 403.88C228.428 402.835 228.258 401.789 228.258 400.744V400.168C228.258 399.08 228.428 398.013 228.77 396.968C229.132 395.923 229.666 394.984 230.37 394.152C231.095 393.299 231.991 392.616 233.058 392.104C234.124 391.592 235.372 391.336 236.802 391.336C238.231 391.336 239.511 391.603 240.642 392.136C241.794 392.669 242.711 393.427 243.394 394.408C244.098 395.368 244.492 396.509 244.578 397.832H241.634C241.484 396.765 240.994 395.88 240.162 395.176C239.33 394.451 238.21 394.088 236.802 394.088C235.586 394.088 234.572 394.365 233.762 394.92C232.951 395.475 232.343 396.232 231.938 397.192C231.532 398.152 231.33 399.24 231.33 400.456C231.33 401.629 231.532 402.707 231.938 403.688C232.343 404.648 232.951 405.416 233.762 405.992C234.594 406.547 235.628 406.824 236.866 406.824C237.826 406.824 238.658 406.653 239.362 406.312C240.066 405.971 240.631 405.512 241.058 404.936C241.484 404.36 241.74 403.709 241.826 402.984H244.77C244.706 404.328 244.311 405.491 243.586 406.472C242.882 407.453 241.943 408.221 240.77 408.776C239.618 409.309 238.316 409.576 236.866 409.576ZM249.776 409V391.912H252.848V409H249.776ZM247.152 394.344V391.912H252.848V394.344H247.152ZM250.64 389.16C249.957 389.16 249.445 388.979 249.104 388.616C248.784 388.253 248.624 387.795 248.624 387.24C248.624 386.685 248.784 386.227 249.104 385.864C249.445 385.501 249.957 385.32 250.64 385.32C251.323 385.32 251.824 385.501 252.144 385.864C252.485 386.227 252.656 386.685 252.656 387.24C252.656 387.795 252.485 388.253 252.144 388.616C251.824 388.979 251.323 389.16 250.64 389.16ZM266.66 409.576C265.166 409.576 263.854 409.32 262.724 408.808C261.593 408.296 260.633 407.624 259.844 406.792C259.076 405.939 258.489 404.989 258.084 403.944C257.7 402.899 257.508 401.832 257.508 400.744V400.168C257.508 399.08 257.71 398.013 258.116 396.968C258.521 395.901 259.118 394.952 259.908 394.12C260.697 393.267 261.657 392.595 262.788 392.104C263.918 391.592 265.209 391.336 266.66 391.336C268.11 391.336 269.401 391.592 270.532 392.104C271.662 392.595 272.622 393.267 273.412 394.12C274.201 394.952 274.798 395.901 275.204 396.968C275.609 398.013 275.812 399.08 275.812 400.168V400.744C275.812 401.832 275.609 402.899 275.204 403.944C274.82 404.989 274.233 405.939 273.444 406.792C272.676 407.624 271.726 408.296 270.596 408.808C269.465 409.32 268.153 409.576 266.66 409.576ZM266.66 406.824C267.94 406.824 269.028 406.547 269.924 405.992C270.841 405.416 271.534 404.648 272.004 403.688C272.494 402.728 272.74 401.651 272.74 400.456C272.74 399.24 272.494 398.152 272.004 397.192C271.513 396.232 270.809 395.475 269.892 394.92C268.996 394.365 267.918 394.088 266.66 394.088C265.422 394.088 264.345 394.365 263.428 394.92C262.51 395.475 261.806 396.232 261.316 397.192C260.825 398.152 260.58 399.24 260.58 400.456C260.58 401.651 260.814 402.728 261.284 403.688C261.774 404.648 262.468 405.416 263.364 405.992C264.281 406.547 265.38 406.824 266.66 406.824ZM265.092 389.416L267.908 383.08H271.14L267.588 389.416H265.092ZM280.413 409V391.912H282.845V399.24H282.461C282.461 397.555 282.685 396.136 283.133 394.984C283.602 393.811 284.306 392.925 285.245 392.328C286.183 391.709 287.367 391.4 288.797 391.4H288.925C291.079 391.4 292.669 392.072 293.693 393.416C294.738 394.76 295.261 396.701 295.261 399.24V409H292.189V398.6C292.189 397.277 291.815 396.221 291.069 395.432C290.322 394.621 289.298 394.216 287.997 394.216C286.653 394.216 285.565 394.632 284.733 395.464C283.901 396.296 283.485 397.405 283.485 398.792V409H280.413Z" fill="white"/>
<path d="M113.888 338.872V336.12H119.104C120.213 336.12 121.131 335.907 121.856 335.48C122.581 335.032 123.125 334.435 123.488 333.688C123.872 332.941 124.064 332.109 124.064 331.192C124.064 330.253 123.872 329.411 123.488 328.664C123.125 327.917 122.581 327.331 121.856 326.904C121.131 326.477 120.213 326.264 119.104 326.264H113.888V323.512H118.528C120.448 323.512 122.048 323.821 123.328 324.44C124.629 325.037 125.611 325.891 126.272 327C126.933 328.109 127.264 329.421 127.264 330.936V331.448C127.264 332.941 126.933 334.253 126.272 335.384C125.611 336.493 124.629 337.357 123.328 337.976C122.048 338.573 120.448 338.872 118.528 338.872H113.888ZM111.392 347V323.512H114.528V347H111.392ZM131.475 347V329.912H133.907V336.952H133.779C133.779 334.456 134.323 332.632 135.411 331.48C136.521 330.307 138.174 329.72 140.371 329.72H140.947V332.472H139.859C138.153 332.472 136.841 332.931 135.923 333.848C135.006 334.744 134.547 336.045 134.547 337.752V347H131.475ZM152.285 347.576C150.791 347.576 149.479 347.32 148.349 346.808C147.218 346.296 146.258 345.624 145.469 344.792C144.701 343.939 144.114 342.989 143.709 341.944C143.325 340.899 143.133 339.832 143.133 338.744V338.168C143.133 337.08 143.335 336.013 143.741 334.968C144.146 333.901 144.743 332.952 145.533 332.12C146.322 331.267 147.282 330.595 148.413 330.104C149.543 329.592 150.834 329.336 152.285 329.336C153.735 329.336 155.026 329.592 156.157 330.104C157.287 330.595 158.247 331.267 159.037 332.12C159.826 332.952 160.423 333.901 160.829 334.968C161.234 336.013 161.437 337.08 161.437 338.168V338.744C161.437 339.832 161.234 340.899 160.829 341.944C160.445 342.989 159.858 343.939 159.069 344.792C158.301 345.624 157.351 346.296 156.221 346.808C155.09 347.32 153.778 347.576 152.285 347.576ZM152.285 344.824C153.565 344.824 154.653 344.547 155.549 343.992C156.466 343.416 157.159 342.648 157.629 341.688C158.119 340.728 158.365 339.651 158.365 338.456C158.365 337.24 158.119 336.152 157.629 335.192C157.138 334.232 156.434 333.475 155.517 332.92C154.621 332.365 153.543 332.088 152.285 332.088C151.047 332.088 149.97 332.365 149.053 332.92C148.135 333.475 147.431 334.232 146.941 335.192C146.45 336.152 146.205 337.24 146.205 338.456C146.205 339.651 146.439 340.728 146.909 341.688C147.399 342.648 148.093 343.416 148.989 343.992C149.906 344.547 151.005 344.824 152.285 344.824ZM169.373 347L163.549 329.912H166.749L172.445 347H169.373ZM170.141 347V344.568H173.853V347H170.141ZM171.613 347L176.573 329.912H179.581L174.525 347H171.613ZM184.432 347V329.912H187.504V347H184.432ZM181.808 332.344V329.912H187.504V332.344H181.808ZM185.296 327.16C184.614 327.16 184.102 326.979 183.76 326.616C183.44 326.253 183.28 325.795 183.28 325.24C183.28 324.685 183.44 324.227 183.76 323.864C184.102 323.501 184.614 323.32 185.296 323.32C185.979 323.32 186.48 323.501 186.8 323.864C187.142 324.227 187.312 324.685 187.312 325.24C187.312 325.795 187.142 326.253 186.8 326.616C186.48 326.979 185.979 327.16 185.296 327.16ZM199.044 347.512C196.804 347.512 195.065 347.032 193.828 346.072C192.612 345.112 191.983 343.8 191.94 342.136H194.82C194.863 342.797 195.193 343.427 195.812 344.024C196.452 344.6 197.529 344.888 199.044 344.888C200.409 344.888 201.455 344.621 202.18 344.088C202.905 343.533 203.268 342.861 203.268 342.072C203.268 341.368 203.001 340.824 202.468 340.44C201.935 340.035 201.071 339.768 199.876 339.64L198.02 339.448C196.399 339.277 195.076 338.797 194.052 338.008C193.028 337.197 192.516 336.067 192.516 334.616C192.516 333.528 192.793 332.6 193.348 331.832C193.903 331.043 194.671 330.445 195.652 330.04C196.633 329.613 197.764 329.4 199.044 329.4C200.964 329.4 202.521 329.827 203.716 330.68C204.911 331.533 205.529 332.803 205.572 334.488H202.692C202.671 333.805 202.351 333.229 201.732 332.76C201.135 332.269 200.239 332.024 199.044 332.024C197.849 332.024 196.943 332.269 196.324 332.76C195.705 333.251 195.396 333.869 195.396 334.616C195.396 335.256 195.609 335.768 196.036 336.152C196.484 336.536 197.209 336.781 198.212 336.888L200.068 337.08C201.903 337.272 203.375 337.784 204.484 338.616C205.593 339.427 206.148 340.579 206.148 342.072C206.148 343.139 205.839 344.088 205.22 344.92C204.623 345.731 203.791 346.371 202.724 346.84C201.657 347.288 200.431 347.512 199.044 347.512ZM211.432 347V329.912H214.504V347H211.432ZM208.808 332.344V329.912H214.504V332.344H208.808ZM212.296 327.16C211.614 327.16 211.102 326.979 210.76 326.616C210.44 326.253 210.28 325.795 210.28 325.24C210.28 324.685 210.44 324.227 210.76 323.864C211.102 323.501 211.614 323.32 212.296 323.32C212.979 323.32 213.48 323.501 213.8 323.864C214.142 324.227 214.312 324.685 214.312 325.24C214.312 325.795 214.142 326.253 213.8 326.616C213.48 326.979 212.979 327.16 212.296 327.16ZM228.316 347.576C226.823 347.576 225.511 347.32 224.38 346.808C223.249 346.296 222.289 345.624 221.5 344.792C220.732 343.939 220.145 342.989 219.74 341.944C219.356 340.899 219.164 339.832 219.164 338.744V338.168C219.164 337.08 219.367 336.013 219.772 334.968C220.177 333.901 220.775 332.952 221.564 332.12C222.353 331.267 223.313 330.595 224.444 330.104C225.575 329.592 226.865 329.336 228.316 329.336C229.767 329.336 231.057 329.592 232.188 330.104C233.319 330.595 234.279 331.267 235.068 332.12C235.857 332.952 236.455 333.901 236.86 334.968C237.265 336.013 237.468 337.08 237.468 338.168V338.744C237.468 339.832 237.265 340.899 236.86 341.944C236.476 342.989 235.889 343.939 235.1 344.792C234.332 345.624 233.383 346.296 232.252 346.808C231.121 347.32 229.809 347.576 228.316 347.576ZM228.316 344.824C229.596 344.824 230.684 344.547 231.58 343.992C232.497 343.416 233.191 342.648 233.66 341.688C234.151 340.728 234.396 339.651 234.396 338.456C234.396 337.24 234.151 336.152 233.66 335.192C233.169 334.232 232.465 333.475 231.548 332.92C230.652 332.365 229.575 332.088 228.316 332.088C227.079 332.088 226.001 332.365 225.084 332.92C224.167 333.475 223.463 334.232 222.972 335.192C222.481 336.152 222.236 337.24 222.236 338.456C222.236 339.651 222.471 340.728 222.94 341.688C223.431 342.648 224.124 343.416 225.02 343.992C225.937 344.547 227.036 344.824 228.316 344.824ZM226.748 327.416L229.564 321.08H232.796L229.244 327.416H226.748ZM242.069 347V329.912H244.501V337.24H244.117C244.117 335.555 244.341 334.136 244.789 332.984C245.258 331.811 245.962 330.925 246.901 330.328C247.84 329.709 249.024 329.4 250.453 329.4H250.581C252.736 329.4 254.325 330.072 255.349 331.416C256.394 332.76 256.917 334.701 256.917 337.24V347H253.845V336.6C253.845 335.277 253.472 334.221 252.725 333.432C251.978 332.621 250.954 332.216 249.653 332.216C248.309 332.216 247.221 332.632 246.389 333.464C245.557 334.296 245.141 335.405 245.141 336.792V347H242.069Z" fill="white"/>
<path d="M111.888 284.128V281.248H117.712C119.12 281.248 120.368 281.024 121.456 280.576C122.565 280.107 123.504 279.467 124.272 278.656C125.061 277.845 125.659 276.896 126.064 275.808C126.469 274.72 126.672 273.547 126.672 272.288C126.672 270.965 126.469 269.771 126.064 268.704C125.659 267.616 125.061 266.677 124.272 265.888C123.504 265.077 122.565 264.459 121.456 264.032C120.368 263.605 119.12 263.392 117.712 263.392H111.888V260.512H117.392C119.504 260.512 121.339 260.843 122.896 261.504C124.453 262.144 125.744 263.019 126.768 264.128C127.813 265.216 128.592 266.443 129.104 267.808C129.616 269.152 129.872 270.528 129.872 271.936V272.64C129.872 274.005 129.616 275.371 129.104 276.736C128.592 278.101 127.813 279.339 126.768 280.448C125.744 281.557 124.453 282.453 122.896 283.136C121.339 283.797 119.504 284.128 117.392 284.128H111.888ZM109.392 284.128V260.512H112.528V284.128H109.392ZM135.089 284V266.912H138.161V284H135.089ZM132.465 269.344V266.912H138.161V269.344H132.465ZM135.953 264.16C135.27 264.16 134.758 263.979 134.417 263.616C134.097 263.253 133.937 262.795 133.937 262.24C133.937 261.685 134.097 261.227 134.417 260.864C134.758 260.501 135.27 260.32 135.953 260.32C136.635 260.32 137.137 260.501 137.457 260.864C137.798 261.227 137.969 261.685 137.969 262.24C137.969 262.795 137.798 263.253 137.457 263.616C137.137 263.979 136.635 264.16 135.953 264.16ZM149.7 284.512C147.46 284.512 145.722 284.032 144.484 283.072C143.268 282.112 142.639 280.8 142.596 279.136H145.476C145.519 279.797 145.85 280.427 146.468 281.024C147.108 281.6 148.186 281.888 149.7 281.888C151.066 281.888 152.111 281.621 152.836 281.088C153.562 280.533 153.924 279.861 153.924 279.072C153.924 278.368 153.658 277.824 153.124 277.44C152.591 277.035 151.727 276.768 150.532 276.64L148.676 276.448C147.055 276.277 145.732 275.797 144.708 275.008C143.684 274.197 143.172 273.067 143.172 271.616C143.172 270.528 143.45 269.6 144.004 268.832C144.559 268.043 145.327 267.445 146.308 267.04C147.29 266.613 148.42 266.4 149.7 266.4C151.62 266.4 153.178 266.827 154.372 267.68C155.567 268.533 156.186 269.803 156.228 271.488H153.348C153.327 270.805 153.007 270.229 152.388 269.76C151.791 269.269 150.895 269.024 149.7 269.024C148.506 269.024 147.599 269.269 146.98 269.76C146.362 270.251 146.052 270.869 146.052 271.616C146.052 272.256 146.266 272.768 146.692 273.152C147.14 273.536 147.866 273.781 148.868 273.888L150.724 274.08C152.559 274.272 154.031 274.784 155.14 275.616C156.25 276.427 156.804 277.579 156.804 279.072C156.804 280.139 156.495 281.088 155.876 281.92C155.279 282.731 154.447 283.371 153.38 283.84C152.314 284.288 151.087 284.512 149.7 284.512ZM168.521 284.576C167.027 284.576 165.737 284.32 164.649 283.808C163.561 283.296 162.675 282.624 161.993 281.792C161.31 280.939 160.798 279.989 160.457 278.944C160.137 277.899 159.977 276.832 159.977 275.744V275.168C159.977 274.059 160.137 272.981 160.457 271.936C160.798 270.891 161.31 269.952 161.993 269.12C162.675 268.267 163.539 267.595 164.585 267.104C165.651 266.592 166.899 266.336 168.329 266.336C170.185 266.336 171.71 266.741 172.905 267.552C174.121 268.341 175.017 269.365 175.593 270.624C176.19 271.883 176.489 273.227 176.489 274.656V276.032H161.321V273.728H174.249L173.545 274.976C173.545 273.76 173.353 272.715 172.969 271.84C172.585 270.944 172.009 270.251 171.241 269.76C170.473 269.269 169.502 269.024 168.329 269.024C167.113 269.024 166.099 269.301 165.289 269.856C164.499 270.411 163.902 271.168 163.497 272.128C163.113 273.088 162.921 274.197 162.921 275.456C162.921 276.672 163.113 277.771 163.497 278.752C163.902 279.712 164.521 280.48 165.353 281.056C166.185 281.611 167.241 281.888 168.521 281.888C169.865 281.888 170.953 281.589 171.785 280.992C172.638 280.395 173.15 279.701 173.321 278.912H176.201C175.966 280.085 175.497 281.099 174.793 281.952C174.089 282.805 173.203 283.456 172.137 283.904C171.07 284.352 169.865 284.576 168.521 284.576ZM180.85 284V266.912H183.282V274.24H182.898C182.898 272.555 183.122 271.136 183.57 269.984C184.04 268.811 184.744 267.925 185.682 267.328C186.621 266.709 187.805 266.4 189.234 266.4H189.362C191.517 266.4 193.106 267.072 194.13 268.416C195.176 269.76 195.698 271.701 195.698 274.24V284H192.626V273.6C192.626 272.277 192.253 271.221 191.506 270.432C190.76 269.621 189.736 269.216 188.434 269.216C187.09 269.216 186.002 269.632 185.17 270.464C184.338 271.296 183.922 272.405 183.922 273.792V284H180.85ZM190.578 263.488C190.045 263.488 189.586 263.413 189.202 263.264C188.818 263.093 188.466 262.901 188.146 262.688C187.826 262.475 187.506 262.293 187.186 262.144C186.866 261.973 186.504 261.888 186.098 261.888C185.65 261.888 185.234 262.005 184.85 262.24C184.488 262.453 184.157 262.752 183.858 263.136L183.346 261.088C183.666 260.683 184.061 260.341 184.53 260.064C185.021 259.787 185.576 259.648 186.194 259.648C186.728 259.648 187.186 259.733 187.57 259.904C187.954 260.053 188.306 260.235 188.626 260.448C188.946 260.661 189.266 260.853 189.586 261.024C189.906 261.173 190.269 261.248 190.674 261.248C191.122 261.248 191.538 261.141 191.922 260.928C192.306 260.693 192.648 260.384 192.946 260L193.458 262.048C193.138 262.453 192.733 262.795 192.242 263.072C191.752 263.349 191.197 263.488 190.578 263.488ZM209.191 284.576C207.698 284.576 206.386 284.32 205.255 283.808C204.124 283.296 203.164 282.624 202.375 281.792C201.607 280.939 201.02 279.989 200.615 278.944C200.231 277.899 200.039 276.832 200.039 275.744V275.168C200.039 274.08 200.242 273.013 200.647 271.968C201.052 270.901 201.65 269.952 202.439 269.12C203.228 268.267 204.188 267.595 205.319 267.104C206.45 266.592 207.74 266.336 209.191 266.336C210.642 266.336 211.932 266.592 213.063 267.104C214.194 267.595 215.154 268.267 215.943 269.12C216.732 269.952 217.33 270.901 217.735 271.968C218.14 273.013 218.343 274.08 218.343 275.168V275.744C218.343 276.832 218.14 277.899 217.735 278.944C217.351 279.989 216.764 280.939 215.975 281.792C215.207 282.624 214.258 283.296 213.127 283.808C211.996 284.32 210.684 284.576 209.191 284.576ZM209.191 281.824C210.471 281.824 211.559 281.547 212.455 280.992C213.372 280.416 214.066 279.648 214.535 278.688C215.026 277.728 215.271 276.651 215.271 275.456C215.271 274.24 215.026 273.152 214.535 272.192C214.044 271.232 213.34 270.475 212.423 269.92C211.527 269.365 210.45 269.088 209.191 269.088C207.954 269.088 206.876 269.365 205.959 269.92C205.042 270.475 204.338 271.232 203.847 272.192C203.356 273.152 203.111 274.24 203.111 275.456C203.111 276.651 203.346 277.728 203.815 278.688C204.306 279.648 204.999 280.416 205.895 280.992C206.812 281.547 207.911 281.824 209.191 281.824Z" fill="white"/>
<path d="M51.536 180.576C49.4027 180.576 47.5787 180.203 46.064 179.456C44.5707 178.709 43.3653 177.739 42.448 176.544C41.5307 175.349 40.8587 174.059 40.432 172.672C40.0053 171.264 39.792 169.909 39.792 168.608V167.904C39.792 166.496 40.0053 165.088 40.432 163.68C40.88 162.272 41.5627 160.992 42.48 159.84C43.3973 158.688 44.592 157.76 46.064 157.056C47.536 156.352 49.296 156 51.344 156C53.4347 156 55.2267 156.363 56.72 157.088C58.2133 157.813 59.3973 158.827 60.272 160.128C61.1467 161.429 61.68 162.965 61.872 164.736H58.672C58.5013 163.413 58.0747 162.325 57.392 161.472C56.7093 160.597 55.8453 159.947 54.8 159.52C53.776 159.093 52.624 158.88 51.344 158.88C49.9573 158.88 48.7413 159.125 47.696 159.616C46.6507 160.085 45.776 160.757 45.072 161.632C44.3893 162.485 43.8667 163.477 43.504 164.608C43.1627 165.739 42.992 166.965 42.992 168.288C42.992 169.547 43.1627 170.741 43.504 171.872C43.8667 173.003 44.4 174.005 45.104 174.88C45.8293 175.755 46.7253 176.448 47.792 176.96C48.8587 177.451 50.1067 177.696 51.536 177.696C53.5413 177.696 55.2267 177.195 56.592 176.192C57.9573 175.189 58.7893 173.739 59.088 171.84H62.288C62.0747 173.44 61.5307 174.901 60.656 176.224C59.8027 177.547 58.608 178.603 57.072 179.392C55.5573 180.181 53.712 180.576 51.536 180.576ZM74.2535 180.576C72.7602 180.576 71.4482 180.32 70.3175 179.808C69.1868 179.296 68.2268 178.624 67.4375 177.792C66.6695 176.939 66.0828 175.989 65.6775 174.944C65.2935 173.899 65.1015 172.832 65.1015 171.744V171.168C65.1015 170.08 65.3042 169.013 65.7095 167.968C66.1148 166.901 66.7122 165.952 67.5015 165.12C68.2908 164.267 69.2508 163.595 70.3815 163.104C71.5122 162.592 72.8028 162.336 74.2535 162.336C75.7042 162.336 76.9948 162.592 78.1255 163.104C79.2562 163.595 80.2162 164.267 81.0055 165.12C81.7948 165.952 82.3922 166.901 82.7975 167.968C83.2028 169.013 83.4055 170.08 83.4055 171.168V171.744C83.4055 172.832 83.2028 173.899 82.7975 174.944C82.4135 175.989 81.8268 176.939 81.0375 177.792C80.2695 178.624 79.3202 179.296 78.1895 179.808C77.0588 180.32 75.7468 180.576 74.2535 180.576ZM74.2535 177.824C75.5335 177.824 76.6215 177.547 77.5175 176.992C78.4348 176.416 79.1282 175.648 79.5975 174.688C80.0882 173.728 80.3335 172.651 80.3335 171.456C80.3335 170.24 80.0882 169.152 79.5975 168.192C79.1068 167.232 78.4028 166.475 77.4855 165.92C76.5895 165.365 75.5122 165.088 74.2535 165.088C73.0162 165.088 71.9388 165.365 71.0215 165.92C70.1042 166.475 69.4002 167.232 68.9095 168.192C68.4188 169.152 68.1735 170.24 68.1735 171.456C68.1735 172.651 68.4082 173.728 68.8775 174.688C69.3682 175.648 70.0615 176.416 70.9575 176.992C71.8748 177.547 72.9735 177.824 74.2535 177.824ZM88.0065 180V162.912H90.4385V170.24H90.0545C90.0545 168.555 90.2785 167.136 90.7265 165.984C91.1958 164.811 91.8998 163.925 92.8385 163.328C93.7772 162.709 94.9612 162.4 96.3905 162.4H96.5185C98.6732 162.4 100.263 163.072 101.287 164.416C102.332 165.76 102.855 167.701 102.855 170.24V180H99.7825V169.6C99.7825 168.277 99.4092 167.221 98.6625 166.432C97.9158 165.621 96.8918 165.216 95.5905 165.216C94.2465 165.216 93.1585 165.632 92.3265 166.464C91.4945 167.296 91.0785 168.405 91.0785 169.792V180H88.0065ZM116.347 180.576C114.854 180.576 113.542 180.32 112.411 179.808C111.281 179.296 110.321 178.624 109.531 177.792C108.763 176.939 108.177 175.989 107.771 174.944C107.387 173.899 107.195 172.832 107.195 171.744V171.168C107.195 170.08 107.398 169.013 107.803 167.968C108.209 166.901 108.806 165.952 109.595 165.12C110.385 164.267 111.345 163.595 112.475 163.104C113.606 162.592 114.897 162.336 116.347 162.336C117.798 162.336 119.089 162.592 120.219 163.104C121.35 163.595 122.31 164.267 123.099 165.12C123.889 165.952 124.486 166.901 124.891 167.968C125.297 169.013 125.499 170.08 125.499 171.168V171.744C125.499 172.832 125.297 173.899 124.891 174.944C124.507 175.989 123.921 176.939 123.131 177.792C122.363 178.624 121.414 179.296 120.283 179.808C119.153 180.32 117.841 180.576 116.347 180.576ZM116.347 177.824C117.627 177.824 118.715 177.547 119.611 176.992C120.529 176.416 121.222 175.648 121.691 174.688C122.182 173.728 122.427 172.651 122.427 171.456C122.427 170.24 122.182 169.152 121.691 168.192C121.201 167.232 120.497 166.475 119.579 165.92C118.683 165.365 117.606 165.088 116.347 165.088C115.11 165.088 114.033 165.365 113.115 165.92C112.198 166.475 111.494 167.232 111.003 168.192C110.513 169.152 110.267 170.24 110.267 171.456C110.267 172.651 110.502 173.728 110.971 174.688C111.462 175.648 112.155 176.416 113.051 176.992C113.969 177.547 115.067 177.824 116.347 177.824ZM137.428 180.576C135.956 180.576 134.676 180.32 133.588 179.808C132.522 179.296 131.636 178.613 130.932 177.76C130.228 176.885 129.695 175.925 129.332 174.88C128.991 173.835 128.82 172.789 128.82 171.744V171.168C128.82 170.08 128.991 169.013 129.332 167.968C129.695 166.923 130.228 165.984 130.932 165.152C131.658 164.299 132.554 163.616 133.62 163.104C134.687 162.592 135.935 162.336 137.364 162.336C138.794 162.336 140.074 162.603 141.204 163.136C142.356 163.669 143.274 164.427 143.956 165.408C144.66 166.368 145.055 167.509 145.14 168.832H142.196C142.047 167.765 141.556 166.88 140.724 166.176C139.892 165.451 138.772 165.088 137.364 165.088C136.148 165.088 135.135 165.365 134.324 165.92C133.514 166.475 132.906 167.232 132.5 168.192C132.095 169.152 131.892 170.24 131.892 171.456C131.892 172.629 132.095 173.707 132.5 174.688C132.906 175.648 133.514 176.416 134.324 176.992C135.156 177.547 136.191 177.824 137.428 177.824C138.388 177.824 139.22 177.653 139.924 177.312C140.628 176.971 141.194 176.512 141.62 175.936C142.047 175.36 142.303 174.709 142.388 173.984H145.332C145.268 175.328 144.874 176.491 144.148 177.472C143.444 178.453 142.506 179.221 141.332 179.776C140.18 180.309 138.879 180.576 137.428 180.576ZM150.339 180V162.912H153.411V180H150.339ZM147.715 165.344V162.912H153.411V165.344H147.715ZM151.203 160.16C150.52 160.16 150.008 159.979 149.667 159.616C149.347 159.253 149.187 158.795 149.187 158.24C149.187 157.685 149.347 157.227 149.667 156.864C150.008 156.501 150.52 156.32 151.203 156.32C151.885 156.32 152.387 156.501 152.707 156.864C153.048 157.227 153.219 157.685 153.219 158.24C153.219 158.795 153.048 159.253 152.707 159.616C152.387 159.979 151.885 160.16 151.203 160.16ZM159.35 180V162.912H161.782V170.24H161.398C161.398 168.576 161.612 167.168 162.038 166.016C162.486 164.843 163.148 163.947 164.022 163.328C164.897 162.709 166.006 162.4 167.35 162.4H167.478C168.822 162.4 169.932 162.709 170.806 163.328C171.702 163.947 172.364 164.843 172.79 166.016C173.217 167.168 173.43 168.576 173.43 170.24H172.534C172.534 168.576 172.758 167.168 173.206 166.016C173.654 164.843 174.316 163.947 175.19 163.328C176.086 162.709 177.206 162.4 178.55 162.4H178.678C180.022 162.4 181.142 162.709 182.038 163.328C182.934 163.947 183.596 164.843 184.022 166.016C184.47 167.168 184.694 168.576 184.694 170.24V180H181.622V169.568C181.622 168.181 181.281 167.115 180.598 166.368C179.916 165.6 178.966 165.216 177.75 165.216C176.492 165.216 175.478 165.621 174.71 166.432C173.942 167.221 173.558 168.331 173.558 169.76V180H170.486V169.568C170.486 168.181 170.145 167.115 169.462 166.368C168.78 165.6 167.83 165.216 166.614 165.216C165.356 165.216 164.342 165.621 163.574 166.432C162.806 167.221 162.422 168.331 162.422 169.76V180H159.35ZM191.151 180V162.912H194.223V180H191.151ZM188.527 165.344V162.912H194.223V165.344H188.527ZM192.015 160.16C191.332 160.16 190.82 159.979 190.479 159.616C190.159 159.253 189.999 158.795 189.999 158.24C189.999 157.685 190.159 157.227 190.479 156.864C190.82 156.501 191.332 156.32 192.015 156.32C192.698 156.32 193.199 156.501 193.519 156.864C193.86 157.227 194.031 157.685 194.031 158.24C194.031 158.795 193.86 159.253 193.519 159.616C193.199 159.979 192.698 160.16 192.015 160.16ZM207.427 180.576C205.933 180.576 204.643 180.32 203.555 179.808C202.467 179.296 201.581 178.624 200.899 177.792C200.216 176.939 199.704 175.989 199.363 174.944C199.043 173.899 198.883 172.832 198.883 171.744V171.168C198.883 170.059 199.043 168.981 199.363 167.936C199.704 166.891 200.216 165.952 200.899 165.12C201.581 164.267 202.445 163.595 203.491 163.104C204.557 162.592 205.805 162.336 207.235 162.336C209.091 162.336 210.616 162.741 211.811 163.552C213.027 164.341 213.923 165.365 214.499 166.624C215.096 167.883 215.395 169.227 215.395 170.656V172.032H200.227V169.728H213.155L212.451 170.976C212.451 169.76 212.259 168.715 211.875 167.84C211.491 166.944 210.915 166.251 210.147 165.76C209.379 165.269 208.408 165.024 207.235 165.024C206.019 165.024 205.005 165.301 204.195 165.856C203.405 166.411 202.808 167.168 202.403 168.128C202.019 169.088 201.827 170.197 201.827 171.456C201.827 172.672 202.019 173.771 202.403 174.752C202.808 175.712 203.427 176.48 204.259 177.056C205.091 177.611 206.147 177.888 207.427 177.888C208.771 177.888 209.859 177.589 210.691 176.992C211.544 176.395 212.056 175.701 212.227 174.912H215.107C214.872 176.085 214.403 177.099 213.699 177.952C212.995 178.805 212.109 179.456 211.043 179.904C209.976 180.352 208.771 180.576 207.427 180.576ZM219.757 180V162.912H222.189V170.24H221.805C221.805 168.555 222.029 167.136 222.477 165.984C222.946 164.811 223.65 163.925 224.589 163.328C225.527 162.709 226.711 162.4 228.141 162.4H228.269C230.423 162.4 232.013 163.072 233.037 164.416C234.082 165.76 234.605 167.701 234.605 170.24V180H231.533V169.6C231.533 168.277 231.159 167.221 230.413 166.432C229.666 165.621 228.642 165.216 227.341 165.216C225.997 165.216 224.909 165.632 224.077 166.464C223.245 167.296 222.829 168.405 222.829 169.792V180H219.757ZM246.881 180.192C245.601 180.192 244.492 180.011 243.553 179.648C242.636 179.285 241.921 178.667 241.409 177.792C240.919 176.896 240.673 175.691 240.673 174.176V157.728H243.617V174.56C243.617 175.477 243.863 176.192 244.353 176.704C244.865 177.195 245.58 177.44 246.497 177.44H249.505V180.192H246.881ZM237.729 165.216V162.912H249.505V165.216H237.729ZM261.597 180.576C260.104 180.576 258.792 180.32 257.661 179.808C256.531 179.296 255.571 178.624 254.781 177.792C254.013 176.939 253.427 175.989 253.021 174.944C252.637 173.899 252.445 172.832 252.445 171.744V171.168C252.445 170.08 252.648 169.013 253.053 167.968C253.459 166.901 254.056 165.952 254.845 165.12C255.635 164.267 256.595 163.595 257.725 163.104C258.856 162.592 260.147 162.336 261.597 162.336C263.048 162.336 264.339 162.592 265.469 163.104C266.6 163.595 267.56 164.267 268.349 165.12C269.139 165.952 269.736 166.901 270.141 167.968C270.547 169.013 270.749 170.08 270.749 171.168V171.744C270.749 172.832 270.547 173.899 270.141 174.944C269.757 175.989 269.171 176.939 268.381 177.792C267.613 178.624 266.664 179.296 265.533 179.808C264.403 180.32 263.091 180.576 261.597 180.576ZM261.597 177.824C262.877 177.824 263.965 177.547 264.861 176.992C265.779 176.416 266.472 175.648 266.941 174.688C267.432 173.728 267.677 172.651 267.677 171.456C267.677 170.24 267.432 169.152 266.941 168.192C266.451 167.232 265.747 166.475 264.829 165.92C263.933 165.365 262.856 165.088 261.597 165.088C260.36 165.088 259.283 165.365 258.365 165.92C257.448 166.475 256.744 167.232 256.253 168.192C255.763 169.152 255.517 170.24 255.517 171.456C255.517 172.651 255.752 173.728 256.221 174.688C256.712 175.648 257.405 176.416 258.301 176.992C259.219 177.547 260.317 177.824 261.597 177.824ZM289.288 180.192C288.008 180.192 286.898 180.011 285.96 179.648C285.042 179.285 284.328 178.667 283.816 177.792C283.325 176.896 283.08 175.691 283.08 174.176V157.728H286.024V174.56C286.024 175.477 286.269 176.192 286.76 176.704C287.272 177.195 287.986 177.44 288.904 177.44H291.912V180.192H289.288ZM280.136 165.216V162.912H291.912V165.216H280.136ZM303.396 180.576C301.902 180.576 300.612 180.32 299.524 179.808C298.436 179.296 297.55 178.624 296.868 177.792C296.185 176.939 295.673 175.989 295.332 174.944C295.012 173.899 294.852 172.832 294.852 171.744V171.168C294.852 170.059 295.012 168.981 295.332 167.936C295.673 166.891 296.185 165.952 296.868 165.12C297.55 164.267 298.414 163.595 299.46 163.104C300.526 162.592 301.774 162.336 303.204 162.336C305.06 162.336 306.585 162.741 307.78 163.552C308.996 164.341 309.892 165.365 310.468 166.624C311.065 167.883 311.364 169.227 311.364 170.656V172.032H296.196V169.728H309.124L308.42 170.976C308.42 169.76 308.228 168.715 307.844 167.84C307.46 166.944 306.884 166.251 306.116 165.76C305.348 165.269 304.377 165.024 303.204 165.024C301.988 165.024 300.974 165.301 300.164 165.856C299.374 166.411 298.777 167.168 298.372 168.128C297.988 169.088 297.796 170.197 297.796 171.456C297.796 172.672 297.988 173.771 298.372 174.752C298.777 175.712 299.396 176.48 300.228 177.056C301.06 177.611 302.116 177.888 303.396 177.888C304.74 177.888 305.828 177.589 306.66 176.992C307.513 176.395 308.025 175.701 308.196 174.912H311.076C310.841 176.085 310.372 177.099 309.668 177.952C308.964 178.805 308.078 179.456 307.012 179.904C305.945 180.352 304.74 180.576 303.396 180.576ZM301.635 160.416L304.452 154.08H307.684L304.132 160.416H301.635ZM323.053 180.576C321.581 180.576 320.301 180.32 319.213 179.808C318.147 179.296 317.261 178.613 316.557 177.76C315.853 176.885 315.32 175.925 314.957 174.88C314.616 173.835 314.445 172.789 314.445 171.744V171.168C314.445 170.08 314.616 169.013 314.957 167.968C315.32 166.923 315.853 165.984 316.557 165.152C317.283 164.299 318.179 163.616 319.245 163.104C320.312 162.592 321.56 162.336 322.989 162.336C324.419 162.336 325.699 162.603 326.829 163.136C327.981 163.669 328.899 164.427 329.581 165.408C330.285 166.368 330.68 167.509 330.765 168.832H327.821C327.672 167.765 327.181 166.88 326.349 166.176C325.517 165.451 324.397 165.088 322.989 165.088C321.773 165.088 320.76 165.365 319.949 165.92C319.139 166.475 318.531 167.232 318.125 168.192C317.72 169.152 317.517 170.24 317.517 171.456C317.517 172.629 317.72 173.707 318.125 174.688C318.531 175.648 319.139 176.416 319.949 176.992C320.781 177.547 321.816 177.824 323.053 177.824C324.013 177.824 324.845 177.653 325.549 177.312C326.253 176.971 326.819 176.512 327.245 175.936C327.672 175.36 327.928 174.709 328.013 173.984H330.957C330.893 175.328 330.499 176.491 329.773 177.472C329.069 178.453 328.131 179.221 326.957 179.776C325.805 180.309 324.504 180.576 323.053 180.576ZM335.132 180V162.912H337.564V170.24H337.18C337.18 168.555 337.404 167.136 337.852 165.984C338.321 164.811 339.025 163.925 339.964 163.328C340.902 162.709 342.086 162.4 343.516 162.4H343.644C345.798 162.4 347.388 163.072 348.412 164.416C349.457 165.76 349.98 167.701 349.98 170.24V180H346.908V169.6C346.908 168.277 346.534 167.221 345.788 166.432C345.041 165.621 344.017 165.216 342.716 165.216C341.372 165.216 340.284 165.632 339.452 166.464C338.62 167.296 338.204 168.405 338.204 169.792V180H335.132ZM356.432 180V162.912H359.504V180H356.432ZM353.808 165.344V162.912H359.504V165.344H353.808ZM357.296 160.16C356.614 160.16 356.102 159.979 355.76 159.616C355.44 159.253 355.28 158.795 355.28 158.24C355.28 157.685 355.44 157.227 355.76 156.864C356.102 156.501 356.614 156.32 357.296 156.32C357.979 156.32 358.48 156.501 358.8 156.864C359.142 157.227 359.312 157.685 359.312 158.24C359.312 158.795 359.142 159.253 358.8 159.616C358.48 159.979 357.979 160.16 357.296 160.16ZM372.772 180.576C371.3 180.576 370.02 180.32 368.932 179.808C367.865 179.296 366.98 178.613 366.276 177.76C365.572 176.885 365.039 175.925 364.676 174.88C364.335 173.835 364.164 172.789 364.164 171.744V171.168C364.164 170.08 364.335 169.013 364.676 167.968C365.039 166.923 365.572 165.984 366.276 165.152C367.001 164.299 367.897 163.616 368.964 163.104C370.031 162.592 371.279 162.336 372.708 162.336C374.137 162.336 375.417 162.603 376.548 163.136C377.7 163.669 378.617 164.427 379.3 165.408C380.004 166.368 380.399 167.509 380.484 168.832H377.54C377.391 167.765 376.9 166.88 376.068 166.176C375.236 165.451 374.116 165.088 372.708 165.088C371.492 165.088 370.479 165.365 369.668 165.92C368.857 166.475 368.249 167.232 367.844 168.192C367.439 169.152 367.236 170.24 367.236 171.456C367.236 172.629 367.439 173.707 367.844 174.688C368.249 175.648 368.857 176.416 369.668 176.992C370.5 177.547 371.535 177.824 372.772 177.824C373.732 177.824 374.564 177.653 375.268 177.312C375.972 176.971 376.537 176.512 376.964 175.936C377.391 175.36 377.647 174.709 377.732 173.984H380.676C380.612 175.328 380.217 176.491 379.492 177.472C378.788 178.453 377.849 179.221 376.676 179.776C375.524 180.309 374.223 180.576 372.772 180.576ZM392.722 180.576C391.229 180.576 389.917 180.32 388.786 179.808C387.656 179.296 386.696 178.624 385.906 177.792C385.138 176.939 384.552 175.989 384.146 174.944C383.762 173.899 383.57 172.832 383.57 171.744V171.168C383.57 170.08 383.773 169.013 384.178 167.968C384.584 166.901 385.181 165.952 385.97 165.12C386.76 164.267 387.72 163.595 388.85 163.104C389.981 162.592 391.272 162.336 392.722 162.336C394.173 162.336 395.464 162.592 396.594 163.104C397.725 163.595 398.685 164.267 399.474 165.12C400.264 165.952 400.861 166.901 401.266 167.968C401.672 169.013 401.874 170.08 401.874 171.168V171.744C401.874 172.832 401.672 173.899 401.266 174.944C400.882 175.989 400.296 176.939 399.506 177.792C398.738 178.624 397.789 179.296 396.658 179.808C395.528 180.32 394.216 180.576 392.722 180.576ZM392.722 177.824C394.002 177.824 395.09 177.547 395.986 176.992C396.904 176.416 397.597 175.648 398.066 174.688C398.557 173.728 398.802 172.651 398.802 171.456C398.802 170.24 398.557 169.152 398.066 168.192C397.576 167.232 396.872 166.475 395.954 165.92C395.058 165.365 393.981 165.088 392.722 165.088C391.485 165.088 390.408 165.365 389.49 165.92C388.573 166.475 387.869 167.232 387.378 168.192C386.888 169.152 386.642 170.24 386.642 171.456C386.642 172.651 386.877 173.728 387.346 174.688C387.837 175.648 388.53 176.416 389.426 176.992C390.344 177.547 391.442 177.824 392.722 177.824Z" fill="white"/>
<path d="M41.392 130V106.64H44.528V130H41.392ZM43.888 130V127.184H55.216V130H43.888ZM43.888 119.536V116.72H54.224V119.536H43.888ZM43.888 109.456V106.64H54.896V109.456H43.888ZM58.0835 130L64.1955 121.008L64.0995 121.648L58.3715 112.912H61.7635L65.8915 119.344H66.3395L70.2435 112.912H73.4115L68.0035 121.424L68.0995 120.848L74.4995 130H71.1075L66.3075 123.056H65.8595L61.2515 130H58.0835ZM78.0378 136.4V112.912H80.4698V120.304L79.8938 120.24C80.0004 118.405 80.3844 116.912 81.0458 115.76C81.7284 114.587 82.6138 113.723 83.7018 113.168C84.7898 112.613 85.9738 112.336 87.2538 112.336C88.4911 112.336 89.6111 112.571 90.6138 113.04C91.6378 113.509 92.5124 114.149 93.2378 114.96C93.9631 115.771 94.5178 116.709 94.9018 117.776C95.2858 118.843 95.4778 119.973 95.4778 121.168V121.744C95.4778 122.939 95.2751 124.069 94.8698 125.136C94.4644 126.203 93.8884 127.141 93.1418 127.952C92.4164 128.763 91.5418 129.403 90.5178 129.872C89.5151 130.341 88.4058 130.576 87.1898 130.576C85.9738 130.576 84.8111 130.309 83.7018 129.776C82.5924 129.243 81.6751 128.379 80.9498 127.184C80.2244 125.989 79.8084 124.421 79.7018 122.48L81.1098 125.04V136.4H78.0378ZM86.7098 127.888C87.8618 127.888 88.8644 127.621 89.7178 127.088C90.5711 126.533 91.2324 125.776 91.7018 124.816C92.1711 123.835 92.4058 122.715 92.4058 121.456C92.4058 120.176 92.1711 119.056 91.7018 118.096C91.2324 117.136 90.5711 116.389 89.7178 115.856C88.8644 115.301 87.8618 115.024 86.7098 115.024C85.6858 115.024 84.7364 115.259 83.8618 115.728C82.9871 116.176 82.2831 116.837 81.7498 117.712C81.2378 118.565 80.9818 119.6 80.9818 120.816V122.288C80.9818 123.461 81.2484 124.464 81.7818 125.296C82.3151 126.128 83.0191 126.768 83.8938 127.216C84.7684 127.664 85.7071 127.888 86.7098 127.888ZM107.364 130.576C105.871 130.576 104.58 130.32 103.492 129.808C102.404 129.296 101.519 128.624 100.836 127.792C100.154 126.939 99.6416 125.989 99.3003 124.944C98.9803 123.899 98.8203 122.832 98.8203 121.744V121.168C98.8203 120.059 98.9803 118.981 99.3003 117.936C99.6416 116.891 100.154 115.952 100.836 115.12C101.519 114.267 102.383 113.595 103.428 113.104C104.495 112.592 105.743 112.336 107.172 112.336C109.028 112.336 110.554 112.741 111.748 113.552C112.964 114.341 113.86 115.365 114.436 116.624C115.034 117.883 115.332 119.227 115.332 120.656V122.032H100.164V119.728H113.092L112.388 120.976C112.388 119.76 112.196 118.715 111.812 117.84C111.428 116.944 110.852 116.251 110.084 115.76C109.316 115.269 108.346 115.024 107.172 115.024C105.956 115.024 104.943 115.301 104.132 115.856C103.343 116.411 102.746 117.168 102.34 118.128C101.956 119.088 101.764 120.197 101.764 121.456C101.764 122.672 101.956 123.771 102.34 124.752C102.746 125.712 103.364 126.48 104.196 127.056C105.028 127.611 106.084 127.888 107.364 127.888C108.708 127.888 109.796 127.589 110.628 126.992C111.482 126.395 111.994 125.701 112.164 124.912H115.044C114.81 126.085 114.34 127.099 113.636 127.952C112.932 128.805 112.047 129.456 110.98 129.904C109.914 130.352 108.708 130.576 107.364 130.576ZM119.694 130V112.912H122.126V119.952H121.998C121.998 117.456 122.542 115.632 123.63 114.48C124.739 113.307 126.393 112.72 128.59 112.72H129.166V115.472H128.078C126.371 115.472 125.059 115.931 124.142 116.848C123.225 117.744 122.766 119.045 122.766 120.752V130H119.694ZM133.651 130V112.912H136.723V130H133.651ZM131.027 115.344V112.912H136.723V115.344H131.027ZM134.515 110.16C133.832 110.16 133.32 109.979 132.979 109.616C132.659 109.253 132.499 108.795 132.499 108.24C132.499 107.685 132.659 107.227 132.979 106.864C133.32 106.501 133.832 106.32 134.515 106.32C135.198 106.32 135.699 106.501 136.019 106.864C136.36 107.227 136.531 107.685 136.531 108.24C136.531 108.795 136.36 109.253 136.019 109.616C135.699 109.979 135.198 110.16 134.515 110.16ZM149.927 130.576C148.433 130.576 147.143 130.32 146.055 129.808C144.967 129.296 144.081 128.624 143.399 127.792C142.716 126.939 142.204 125.989 141.863 124.944C141.543 123.899 141.383 122.832 141.383 121.744V121.168C141.383 120.059 141.543 118.981 141.863 117.936C142.204 116.891 142.716 115.952 143.399 115.12C144.081 114.267 144.945 113.595 145.991 113.104C147.057 112.592 148.305 112.336 149.735 112.336C151.591 112.336 153.116 112.741 154.311 113.552C155.527 114.341 156.423 115.365 156.999 116.624C157.596 117.883 157.895 119.227 157.895 120.656V122.032H142.727V119.728H155.655L154.951 120.976C154.951 119.76 154.759 118.715 154.375 117.84C153.991 116.944 153.415 116.251 152.647 115.76C151.879 115.269 150.908 115.024 149.735 115.024C148.519 115.024 147.505 115.301 146.695 115.856C145.905 116.411 145.308 117.168 144.903 118.128C144.519 119.088 144.327 120.197 144.327 121.456C144.327 122.672 144.519 123.771 144.903 124.752C145.308 125.712 145.927 126.48 146.759 127.056C147.591 127.611 148.647 127.888 149.927 127.888C151.271 127.888 152.359 127.589 153.191 126.992C154.044 126.395 154.556 125.701 154.727 124.912H157.607C157.372 126.085 156.903 127.099 156.199 127.952C155.495 128.805 154.609 129.456 153.543 129.904C152.476 130.352 151.271 130.576 149.927 130.576ZM162.257 130V112.912H164.689V120.24H164.305C164.305 118.555 164.529 117.136 164.977 115.984C165.446 114.811 166.15 113.925 167.089 113.328C168.027 112.709 169.211 112.4 170.641 112.4H170.769C172.923 112.4 174.513 113.072 175.537 114.416C176.582 115.76 177.105 117.701 177.105 120.24V130H174.033V119.6C174.033 118.277 173.659 117.221 172.913 116.432C172.166 115.621 171.142 115.216 169.841 115.216C168.497 115.216 167.409 115.632 166.577 116.464C165.745 117.296 165.329 118.405 165.329 119.792V130H162.257ZM190.053 130.576C188.581 130.576 187.301 130.32 186.213 129.808C185.147 129.296 184.261 128.613 183.557 127.76C182.853 126.885 182.32 125.925 181.957 124.88C181.616 123.835 181.445 122.789 181.445 121.744V121.168C181.445 120.08 181.616 119.013 181.957 117.968C182.32 116.923 182.853 115.984 183.557 115.152C184.283 114.299 185.179 113.616 186.245 113.104C187.312 112.592 188.56 112.336 189.989 112.336C191.419 112.336 192.699 112.603 193.829 113.136C194.981 113.669 195.899 114.427 196.581 115.408C197.285 116.368 197.68 117.509 197.765 118.832H194.821C194.672 117.765 194.181 116.88 193.349 116.176C192.517 115.451 191.397 115.088 189.989 115.088C188.773 115.088 187.76 115.365 186.949 115.92C186.139 116.475 185.531 117.232 185.125 118.192C184.72 119.152 184.517 120.24 184.517 121.456C184.517 122.629 184.72 123.707 185.125 124.688C185.531 125.648 186.139 126.416 186.949 126.992C187.781 127.547 188.816 127.824 190.053 127.824C191.013 127.824 191.845 127.653 192.549 127.312C193.253 126.971 193.819 126.512 194.245 125.936C194.672 125.36 194.928 124.709 195.013 123.984H197.957C197.893 125.328 197.499 126.491 196.773 127.472C196.069 128.453 195.131 129.221 193.957 129.776C192.805 130.309 191.504 130.576 190.053 130.576ZM202.964 130V112.912H206.036V130H202.964ZM200.34 115.344V112.912H206.036V115.344H200.34ZM203.828 110.16C203.145 110.16 202.633 109.979 202.292 109.616C201.972 109.253 201.812 108.795 201.812 108.24C201.812 107.685 201.972 107.227 202.292 106.864C202.633 106.501 203.145 106.32 203.828 106.32C204.51 106.32 205.012 106.501 205.332 106.864C205.673 107.227 205.844 107.685 205.844 108.24C205.844 108.795 205.673 109.253 205.332 109.616C205.012 109.979 204.51 110.16 203.828 110.16ZM222.311 130V124.88H221.799V118.96C221.799 117.787 221.49 116.901 220.871 116.304C220.274 115.707 219.389 115.408 218.215 115.408C217.554 115.408 216.871 115.419 216.167 115.44C215.463 115.461 214.791 115.483 214.151 115.504C213.511 115.525 212.957 115.557 212.487 115.6V112.912C212.957 112.869 213.447 112.837 213.959 112.816C214.493 112.773 215.037 112.752 215.591 112.752C216.146 112.731 216.679 112.72 217.191 112.72C218.941 112.72 220.37 112.933 221.479 113.36C222.589 113.765 223.41 114.437 223.943 115.376C224.477 116.315 224.743 117.584 224.743 119.184V130H222.311ZM216.711 130.448C215.431 130.448 214.322 130.235 213.383 129.808C212.466 129.36 211.751 128.72 211.239 127.888C210.749 127.056 210.503 126.053 210.503 124.88C210.503 123.664 210.77 122.651 211.303 121.84C211.858 121.029 212.658 120.421 213.703 120.016C214.749 119.589 216.007 119.376 217.479 119.376H222.119V121.68H217.351C216.114 121.68 215.165 121.979 214.503 122.576C213.842 123.173 213.511 123.941 213.511 124.88C213.511 125.819 213.842 126.576 214.503 127.152C215.165 127.728 216.114 128.016 217.351 128.016C218.077 128.016 218.77 127.888 219.431 127.632C220.093 127.355 220.637 126.907 221.063 126.288C221.511 125.648 221.757 124.773 221.799 123.664L222.631 124.88C222.525 126.096 222.226 127.12 221.735 127.952C221.266 128.763 220.605 129.381 219.751 129.808C218.919 130.235 217.906 130.448 216.711 130.448Z" fill="white"/>
<path d="M41.392 78V54.64H44.528V78H41.392ZM43.888 78V75.184H54.576V78H43.888ZM66.0973 78.576C64.6039 78.576 63.2919 78.32 62.1613 77.808C61.0306 77.296 60.0706 76.624 59.2812 75.792C58.5133 74.9387 57.9266 73.9893 57.5213 72.944C57.1373 71.8987 56.9453 70.832 56.9453 69.744V69.168C56.9453 68.08 57.1479 67.0133 57.5533 65.968C57.9586 64.9013 58.5559 63.952 59.3453 63.12C60.1346 62.2667 61.0946 61.5947 62.2253 61.104C63.3559 60.592 64.6466 60.336 66.0973 60.336C67.5479 60.336 68.8386 60.592 69.9693 61.104C71.0999 61.5947 72.0599 62.2667 72.8493 63.12C73.6386 63.952 74.2359 64.9013 74.6413 65.968C75.0466 67.0133 75.2493 68.08 75.2493 69.168V69.744C75.2493 70.832 75.0466 71.8987 74.6413 72.944C74.2573 73.9893 73.6706 74.9387 72.8813 75.792C72.1133 76.624 71.1639 77.296 70.0333 77.808C68.9026 78.32 67.5906 78.576 66.0973 78.576ZM66.0973 75.824C67.3773 75.824 68.4653 75.5467 69.3613 74.992C70.2786 74.416 70.9719 73.648 71.4412 72.688C71.9319 71.728 72.1772 70.6507 72.1772 69.456C72.1772 68.24 71.9319 67.152 71.4412 66.192C70.9506 65.232 70.2466 64.4747 69.3293 63.92C68.4333 63.3653 67.3559 63.088 66.0973 63.088C64.8599 63.088 63.7826 63.3653 62.8653 63.92C61.9479 64.4747 61.2439 65.232 60.7533 66.192C60.2626 67.152 60.0173 68.24 60.0173 69.456C60.0173 70.6507 60.2519 71.728 60.7213 72.688C61.2119 73.648 61.9053 74.416 62.8013 74.992C63.7186 75.5467 64.8173 75.824 66.0973 75.824ZM86.3142 84.656C85.5249 84.656 84.7249 84.624 83.9143 84.56C83.1249 84.496 82.3676 84.4107 81.6423 84.304V81.712C82.4103 81.8187 83.2103 81.904 84.0423 81.968C84.8956 82.0533 85.6956 82.096 86.4423 82.096C87.9996 82.096 89.2369 81.8827 90.1543 81.456C91.0929 81.0507 91.7649 80.4 92.1703 79.504C92.5969 78.6293 92.8103 77.4987 92.8103 76.112V72.848L93.8343 70.416C93.7703 72.144 93.4076 73.584 92.7463 74.736C92.0849 75.8667 91.2209 76.72 90.1543 77.296C89.1089 77.8507 87.9463 78.128 86.6663 78.128C85.4716 78.128 84.3729 77.904 83.3703 77.456C82.3889 76.9867 81.5356 76.3467 80.8103 75.536C80.1063 74.7253 79.5516 73.7973 79.1463 72.752C78.7623 71.6853 78.5703 70.5653 78.5703 69.392V68.816C78.5703 67.6213 78.7729 66.512 79.1783 65.488C79.5836 64.4427 80.1489 63.536 80.8743 62.768C81.5996 62 82.4636 61.4027 83.4663 60.976C84.4903 60.5493 85.6103 60.336 86.8263 60.336C88.2556 60.336 89.5143 60.6453 90.6023 61.264C91.6903 61.8613 92.5436 62.7467 93.1623 63.92C93.8023 65.072 94.1543 66.4907 94.2183 68.176L93.3223 68.208V60.912H95.7543V75.984C95.7543 78.032 95.4343 79.6853 94.7943 80.944C94.1756 82.224 93.1729 83.1627 91.7863 83.76C90.4209 84.3573 88.5969 84.656 86.3142 84.656ZM87.2423 75.312C88.2663 75.312 89.1943 75.088 90.0263 74.64C90.8796 74.192 91.5516 73.552 92.0423 72.72C92.5543 71.8667 92.8103 70.8533 92.8103 69.68V68.208C92.8103 67.056 92.5436 66.0853 92.0103 65.296C91.4983 64.5067 90.8263 63.9093 89.9943 63.504C89.1623 63.0987 88.2556 62.896 87.2743 62.896C86.1649 62.896 85.1836 63.152 84.3303 63.664C83.4769 64.176 82.8156 64.9013 82.3463 65.84C81.8769 66.7573 81.6423 67.8453 81.6423 69.104C81.6423 70.3627 81.8769 71.4613 82.3463 72.4C82.8369 73.3387 83.4983 74.064 84.3303 74.576C85.1836 75.0667 86.1543 75.312 87.2423 75.312ZM102.276 78V60.912H105.348V78H102.276ZM99.652 63.344V60.912H105.348V63.344H99.652ZM101.22 58.416L104.036 52.08H107.268L103.716 58.416H101.22ZM116.888 78.512C114.648 78.512 112.909 78.032 111.672 77.072C110.456 76.112 109.826 74.8 109.784 73.136H112.664C112.706 73.7973 113.037 74.4267 113.656 75.024C114.296 75.6 115.373 75.888 116.888 75.888C118.253 75.888 119.298 75.6213 120.024 75.088C120.749 74.5333 121.112 73.8613 121.112 73.072C121.112 72.368 120.845 71.824 120.312 71.44C119.778 71.0347 118.914 70.768 117.72 70.64L115.864 70.448C114.242 70.2773 112.92 69.7973 111.896 69.008C110.872 68.1973 110.36 67.0667 110.36 65.616C110.36 64.528 110.637 63.6 111.192 62.832C111.746 62.0427 112.514 61.4453 113.496 61.04C114.477 60.6133 115.608 60.4 116.888 60.4C118.808 60.4 120.365 60.8267 121.56 61.68C122.754 62.5333 123.373 63.8027 123.416 65.488H120.536C120.514 64.8053 120.194 64.2293 119.576 63.76C118.978 63.2693 118.082 63.024 116.888 63.024C115.693 63.024 114.786 63.2693 114.168 63.76C113.549 64.2507 113.24 64.8693 113.24 65.616C113.24 66.256 113.453 66.768 113.88 67.152C114.328 67.536 115.053 67.7813 116.056 67.888L117.912 68.08C119.746 68.272 121.218 68.784 122.328 69.616C123.437 70.4267 123.992 71.5787 123.992 73.072C123.992 74.1387 123.682 75.088 123.064 75.92C122.466 76.7307 121.634 77.3707 120.568 77.84C119.501 78.288 118.274 78.512 116.888 78.512ZM135.1 78.192C133.82 78.192 132.711 78.0107 131.772 77.648C130.855 77.2853 130.14 76.6667 129.628 75.792C129.137 74.896 128.892 73.6907 128.892 72.176V55.728H131.836V72.56C131.836 73.4773 132.081 74.192 132.572 74.704C133.084 75.1947 133.799 75.44 134.716 75.44H137.724V78.192H135.1ZM125.948 63.216V60.912H137.724V63.216H125.948ZM142.901 78V60.912H145.973V78H142.901ZM140.277 63.344V60.912H145.973V63.344H140.277ZM143.765 58.16C143.082 58.16 142.57 57.9787 142.229 57.616C141.909 57.2533 141.749 56.7947 141.749 56.24C141.749 55.6853 141.909 55.2267 142.229 54.864C142.57 54.5013 143.082 54.32 143.765 54.32C144.448 54.32 144.949 54.5013 145.269 54.864C145.61 55.2267 145.781 55.6853 145.781 56.24C145.781 56.7947 145.61 57.2533 145.269 57.616C144.949 57.9787 144.448 58.16 143.765 58.16ZM159.241 78.576C157.769 78.576 156.489 78.32 155.401 77.808C154.334 77.296 153.449 76.6133 152.745 75.76C152.041 74.8853 151.507 73.9253 151.145 72.88C150.803 71.8347 150.633 70.7893 150.633 69.744V69.168C150.633 68.08 150.803 67.0133 151.145 65.968C151.507 64.9227 152.041 63.984 152.745 63.152C153.47 62.2987 154.366 61.616 155.433 61.104C156.499 60.592 157.747 60.336 159.177 60.336C160.606 60.336 161.886 60.6027 163.017 61.136C164.169 61.6693 165.086 62.4267 165.769 63.408C166.473 64.368 166.867 65.5093 166.953 66.832H164.009C163.859 65.7653 163.369 64.88 162.537 64.176C161.705 63.4507 160.585 63.088 159.177 63.088C157.961 63.088 156.947 63.3653 156.137 63.92C155.326 64.4747 154.718 65.232 154.313 66.192C153.907 67.152 153.705 68.24 153.705 69.456C153.705 70.6293 153.907 71.7067 154.313 72.688C154.718 73.648 155.326 74.416 156.137 74.992C156.969 75.5467 158.003 75.824 159.241 75.824C160.201 75.824 161.033 75.6533 161.737 75.312C162.441 74.9707 163.006 74.512 163.433 73.936C163.859 73.36 164.115 72.7093 164.201 71.984H167.145C167.081 73.328 166.686 74.4907 165.961 75.472C165.257 76.4533 164.318 77.2213 163.145 77.776C161.993 78.3093 160.691 78.576 159.241 78.576ZM181.655 78V72.88H181.143V66.96C181.143 65.7867 180.834 64.9013 180.215 64.304C179.618 63.7067 178.732 63.408 177.559 63.408C176.898 63.408 176.215 63.4187 175.511 63.44C174.807 63.4613 174.135 63.4827 173.495 63.504C172.855 63.5253 172.3 63.5573 171.831 63.6V60.912C172.3 60.8693 172.791 60.8373 173.303 60.816C173.836 60.7733 174.38 60.752 174.935 60.752C175.49 60.7307 176.023 60.72 176.535 60.72C178.284 60.72 179.714 60.9333 180.823 61.36C181.932 61.7653 182.754 62.4373 183.287 63.376C183.82 64.3147 184.087 65.584 184.087 67.184V78H181.655ZM176.055 78.448C174.775 78.448 173.666 78.2347 172.727 77.808C171.81 77.36 171.095 76.72 170.583 75.888C170.092 75.056 169.847 74.0533 169.847 72.88C169.847 71.664 170.114 70.6507 170.647 69.84C171.202 69.0293 172.002 68.4213 173.047 68.016C174.092 67.5893 175.351 67.376 176.823 67.376H181.463V69.68H176.695C175.458 69.68 174.508 69.9787 173.847 70.576C173.186 71.1733 172.855 71.9413 172.855 72.88C172.855 73.8187 173.186 74.576 173.847 75.152C174.508 75.728 175.458 76.016 176.695 76.016C177.42 76.016 178.114 75.888 178.775 75.632C179.436 75.3547 179.98 74.9067 180.407 74.288C180.855 73.648 181.1 72.7733 181.143 71.664L181.975 72.88C181.868 74.096 181.57 75.12 181.079 75.952C180.61 76.7627 179.948 77.3813 179.095 77.808C178.263 78.2347 177.25 78.448 176.055 78.448Z" fill="white"/>
<defs>
<filter id="filter0_d_154_58" x="0" y="0" width="444" height="535" filterUnits="userSpaceOnUse" color-interpolation-filters="sRGB">
<feFlood flood-opacity="0" result="BackgroundImageFix"/>
<feColorMatrix in="SourceAlpha" type="matrix" values="0 0 0 0 0 0 0 0 0 0 0 0 0 0 0 0 0 0 127 0" result="hardAlpha"/>
<feOffset dy="4"/>
<feGaussianBlur stdDeviation="2"/>
<feComposite in2="hardAlpha" operator="out"/>
<feColorMatrix type="matrix" values="0 0 0 0 0 0 0 0 0 0 0 0 0 0 0 0 0 0 0.25 0"/>
<feBlend mode="normal" in2="BackgroundImageFix" result="effect1_dropShadow_154_58"/>
<feBlend mode="normal" in="SourceGraphic" in2="effect1_dropShadow_154_58" result="shape"/>
</filter>
</defs>
</svg>
